<svg width="316" height="437" viewBox="0 0 316 437" fill="none" xmlns="http://www.w3.org/2000/svg">
<g clip-path="url(#clip0_420_1486)">
<path d="M161.004 331.82H55.9982V384.116H161.004V331.82Z" fill="#E44946" stroke="#231F20" stroke-width="1.0886" stroke-miterlimit="10"/>
<path d="M265.967 331.82H160.961V384.116H265.967V331.82Z" fill="#E44946" stroke="#231F20" stroke-width="1.0886" stroke-miterlimit="10"/>
<path d="M105.617 384.006H0.610344V436.303H105.617V384.006Z" fill="#E44946" stroke="#231F20" stroke-width="1.0886" stroke-miterlimit="10"/>
<path d="M210.579 384.006H105.573V436.303H210.579V384.006Z" fill="#E44946" stroke="#231F20" stroke-width="1.0886" stroke-miterlimit="10"/>
<path d="M315.39 384.006H210.383V436.303H315.39V384.006Z" fill="#E44946" stroke="#231F20" stroke-width="1.0886" stroke-miterlimit="10"/>
<path d="M138.035 172.079C138.035 172.079 160.765 203.561 154.647 222.35L115.305 182.573L138.035 172.079Z" fill="#EFEFEF" stroke="#231F20" stroke-width="1.0886" stroke-miterlimit="10"/>
<path d="M124.493 182.138L158.152 222.808C158.152 222.808 176.071 241.597 162.093 264.784L107.881 206.196L124.493 182.159V182.138Z" fill="#EFEFEF" stroke="#231F20" stroke-width="1.0886" stroke-miterlimit="10"/>
<path d="M106.988 198.313L168.647 268.702L106.988 264.762V198.313Z" fill="#EFEFEF" stroke="#231F20" stroke-width="1.0886" stroke-miterlimit="10"/>
<path d="M210.884 255.292H105.878V307.588H210.884V255.292Z" fill="#E44946" stroke="#231F20" stroke-width="1.0886" stroke-miterlimit="10"/>
<path d="M107.881 137.549L86.8926 158.537C86.8926 158.537 78.5757 166.397 80.7746 176.02C82.9518 185.643 85.5862 192.196 85.5862 192.196C85.5862 192.196 91.2687 179.09 107.881 137.549Z" fill="#EFEFEF" stroke="#231F20" stroke-width="1.0886" stroke-miterlimit="10"/>
<path d="M107.75 230.275C107.75 230.275 117.635 201.035 146.439 185.556L137.992 170.446C137.992 170.446 104.005 191.521 107.75 230.253V230.275Z" fill="#252525" stroke="#231F20" stroke-width="1.0886" stroke-miterlimit="10"/>
<path d="M174.764 52.7247L204.548 1.4082L307.377 74.845L247.635 101.755L174.764 52.7247Z" fill="#252525" stroke="#231F20" stroke-width="1.0886" stroke-miterlimit="10"/>
<path d="M174.764 52.7256L247.635 101.734C247.635 101.734 254.798 135.982 245.24 165.439C235.682 194.897 224.535 229.928 225.341 267.354C225.341 267.354 200.564 264.763 197.059 224.55L192.683 182.138C192.683 182.138 189.613 161.15 168.189 163.784C168.189 163.784 150.271 162.478 122.729 193.503C122.729 193.503 105.247 209.244 110.058 225.856C114.87 242.468 119.246 277.456 97.8223 289.692L81.2103 230.232C81.2103 230.232 76.8341 217.126 83.3875 198.315C83.3875 198.315 92.0745 155.62 113.433 124.138C150.859 69.011 174.764 52.7256 174.764 52.7256Z" fill="#EFEFEF" stroke="#231F20" stroke-width="1.0886" stroke-miterlimit="10"/>
<path d="M265.684 335.913H56.6732V331.559H265.684V335.913Z" fill="#252525" stroke="#231F20" stroke-width="1.0886" stroke-miterlimit="10"/>
<path d="M315.76 388.165H0.0660629V383.811H315.76V388.165Z" fill="#252525" stroke="#231F20" stroke-width="1.0886" stroke-miterlimit="10"/>
</g>
<defs>
<clipPath id="clip0_420_1486">
<rect width="315.868" height="436.375" fill="white" transform="translate(0.0661469 0.624512)"/>
</clipPath>
</defs>
</svg>

