<svg width="451" height="276" viewBox="0 0 451 276" fill="none" xmlns="http://www.w3.org/2000/svg">
<g clip-path="url(#clip0_420_1540)">
<path d="M231.494 274.969C307.031 274.969 368.266 213.702 368.266 138.125C368.266 62.5483 307.031 1.28125 231.494 1.28125C155.957 1.28125 94.7225 62.5483 94.7225 138.125C94.7225 213.702 155.957 274.969 231.494 274.969Z" fill="#F8B32B" stroke="#231F20" stroke-width="1.20908" stroke-miterlimit="10"/>
<path d="M104.008 57.0005C104.008 57.0005 123.708 64.5855 146.136 52.4601C170.846 39.1011 211.82 44.9014 211.82 44.9014L233.96 84.1383L353.497 179.698C353.497 179.698 351.608 208.804 322.517 203.739C322.517 203.739 325.036 229.696 291.538 225.26C291.538 225.26 282.042 246.782 254.237 235.391C254.237 235.391 244.111 252.477 216.935 241.716L86.0133 165.158L72.7401 159.463L104.061 57.0268L104.008 57.0005Z" fill="#EFEFEF" stroke="#231F20" stroke-width="1.20908" stroke-miterlimit="10"/>
<path d="M129.584 161.352C129.584 161.352 119.301 148.675 99.7851 156.208C99.7851 156.208 90.5253 161.011 82.9969 173.005C82.9969 173.005 79.5605 183.975 93.2797 191.849C106.973 199.723 114.16 186.705 114.16 186.705L129.584 161.352Z" fill="#EFEFEF" stroke="#231F20" stroke-width="1.20908" stroke-miterlimit="10"/>
<path d="M162.478 172.637C162.478 172.637 151.854 154.475 129.61 161.325L104.611 195.602C104.611 195.602 106.316 218.567 130.292 217.884L162.478 172.663V172.637Z" fill="#EFEFEF" stroke="#231F20" stroke-width="1.20908" stroke-miterlimit="10"/>
<path d="M55.5063 28.498L104.009 57.0006L72.6617 159.437L0.970768 149.778L55.5063 28.498Z" fill="#252525" stroke="#231F20" stroke-width="1.20908" stroke-miterlimit="10"/>
<path d="M357.274 58.8381L415.062 30.8867L450.134 160.671L379.414 155.658L357.274 58.8381Z" fill="#252525" stroke="#231F20" stroke-width="1.20908" stroke-miterlimit="10"/>
<path d="M161.455 173.216C161.455 173.216 185.379 169.384 185.693 186.811L157.914 229.959C157.914 229.959 133.676 241.192 131.027 216.363L161.455 173.216Z" fill="#EFEFEF" stroke="#231F20" stroke-width="1.20908" stroke-miterlimit="10"/>
<path d="M157.914 229.957C157.914 229.957 163.082 250.953 185.247 245.494C185.247 245.494 187.188 245.101 191.071 238.487L202.718 217.097C202.718 217.097 211.374 191.849 185.667 186.783L157.888 229.931L157.914 229.957Z" fill="#EFEFEF" stroke="#231F20" stroke-width="1.20908" stroke-miterlimit="10"/>
<path d="M322.491 203.738L270.552 171.902" stroke="#231F20" stroke-width="1.20908" stroke-miterlimit="10"/>
<path d="M291.485 225.259L245.816 197.071" stroke="#231F20" stroke-width="1.20908" stroke-miterlimit="10"/>
<path d="M254.184 235.389L229.946 217.857" stroke="#231F20" stroke-width="1.20908" stroke-miterlimit="10"/>
<path d="M357.275 58.8373C357.275 58.8373 293.401 40.4917 225.723 41.7515C225.723 41.7515 207.387 40.4917 188.422 64.5326L149.835 115.16C149.835 115.16 155.527 122.115 175.778 117.68C196.029 113.244 228.897 82.2482 228.897 82.2482L339.568 170.197L379.414 155.631L357.275 58.811V58.8373Z" fill="#EFEFEF" stroke="#231F20" stroke-width="1.20908" stroke-miterlimit="10"/>
<path d="M228.897 82.249L213.971 69.3887" stroke="#231F20" stroke-width="1.20908" stroke-miterlimit="10"/>
<path d="M218.824 91.3301L340.302 170.644L228.897 82.2754C228.897 82.2754 222.444 87.9182 218.824 91.3563V91.3301Z" fill="#231F20"/>
</g>
<defs>
<clipPath id="clip0_420_1540">
<rect width="451" height="275" fill="white" transform="translate(0 0.625)"/>
</clipPath>
</defs>
</svg>

