<svg width="507" height="329" viewBox="0 0 507 329" fill="none" xmlns="http://www.w3.org/2000/svg">
<g clip-path="url(#clip0_420_1469)">
<path d="M240.251 229.341L228.273 192.495C217.521 159.394 240.717 124.241 275.489 122.675C276.314 122.633 277.161 122.612 277.986 122.612H279.108C279.955 122.612 280.78 122.612 281.605 122.675C316.378 124.241 339.573 159.416 328.822 192.495L316.843 229.341H240.23H240.251Z" fill="#F8B32B" stroke="#231F20" stroke-width="1.05819" stroke-miterlimit="10"/>
<path d="M264.696 229.488L252.463 175.668C252.463 175.668 272.378 182.653 276.928 165.192C276.928 165.192 280.42 183.012 301.732 175.668L289.5 229.488" fill="#F8B32B"/>
<path d="M264.696 229.488L252.463 175.668C252.463 175.668 272.378 182.653 276.928 165.192C276.928 165.192 280.42 183.012 301.732 175.668L289.5 229.488" stroke="#231F20" stroke-width="1.05819" stroke-miterlimit="10"/>
<path d="M316.589 229.34H240.252V241.827H316.589V229.34Z" fill="#252525" stroke="#231F20" stroke-width="1.05819" stroke-miterlimit="10"/>
<path d="M308.78 241.891H247.109V254.377H308.78V241.891Z" fill="#252525" stroke="#231F20" stroke-width="1.05819" stroke-miterlimit="10"/>
<path d="M200.612 71.0986C200.612 71.0986 204.315 86.1461 228.527 77.1938C252.759 68.2204 270.092 56.5168 304.653 61.5114L300.103 29.9985L252.886 32.7287L200.591 71.1198L200.612 71.0986Z" fill="#EFEFEF" stroke="#231F20" stroke-width="1.05819" stroke-miterlimit="10"/>
<path d="M404.588 102.95L369.456 91.3521C369.456 91.3521 353.203 103.14 315.171 107.161L236.95 115.034C236.95 115.034 233.775 93.4685 255.151 85.913C276.526 78.3575 294.198 75.966 298.198 60.453C298.198 60.453 299.827 40.3685 273.965 42.6331C248.103 44.8976 216.929 65.3206 216.929 65.3206C216.929 65.3206 182.58 90.8019 162.813 68.474L230.41 20.5169C230.41 20.5169 260.801 -3.71567 295.341 1.19433L435.741 21.8714L404.588 102.95Z" fill="#EFEFEF" stroke="#231F20" stroke-width="1.05819" stroke-miterlimit="10"/>
<path d="M435.741 21.8721L404.588 102.951L465.752 141.278L506.28 28.8773L435.741 21.8721Z" fill="#252525" stroke="#231F20" stroke-width="1.05819" stroke-miterlimit="10"/>
<path d="M369.457 91.3522C369.457 91.3522 372.822 90.0189 384.187 78.019L369.457 91.3522Z" fill="white"/>
<path d="M369.457 91.3522C369.457 91.3522 372.822 90.0189 384.187 78.019" stroke="#231F20" stroke-width="1.05819" stroke-miterlimit="10"/>
<path d="M309.14 265.742C309.14 265.742 306.981 250.399 281.986 256.875C256.992 263.351 238.558 273.256 204.654 264.811L206.008 296.62L253.246 298.673L309.14 265.764V265.742Z" fill="#EFEFEF" stroke="#231F20" stroke-width="1.05819" stroke-miterlimit="10"/>
<path d="M109.417 213.488L143.194 228.557C143.194 228.557 160.548 218.462 198.791 218.293L277.415 218.356C277.415 218.356 278.389 240.134 256.357 245.488C234.326 250.843 216.506 251.456 210.961 266.483C210.961 266.483 207.32 286.292 233.288 286.652C259.256 286.99 292.314 269.826 292.314 269.826C292.314 269.826 329.055 247.943 346.472 272.133L274.389 313.043C274.389 313.043 241.69 334.101 207.828 325.72L70.2426 290.99L109.417 213.467V213.488Z" fill="#EFEFEF" stroke="#231F20" stroke-width="1.05819" stroke-miterlimit="10"/>
<path d="M70.2429 291.012L109.417 213.489L52.423 169.193L0.762146 276.917L70.2429 291.012Z" fill="#252525" stroke="#231F20" stroke-width="1.05819" stroke-miterlimit="10"/>
<path d="M143.194 228.579C143.194 228.579 139.702 229.552 127.195 240.346L143.194 228.579Z" fill="white"/>
<path d="M143.194 228.579C143.194 228.579 139.702 229.552 127.195 240.346" stroke="#231F20" stroke-width="1.05819" stroke-miterlimit="10"/>
<path d="M293.457 254.102H262.897V266.589H293.457V254.102Z" fill="#252525" stroke="#231F20" stroke-width="1.05819" stroke-miterlimit="10"/>
<path d="M284.42 60.1992C284.42 60.1992 290.41 44.1358 265.5 43.8819C265.5 43.8819 283.955 39.4375 292.547 46.8871C292.547 46.8871 299.044 50.5908 298.198 60.432L284.42 60.1992Z" fill="#252525" stroke="#231F20" stroke-width="1.05819" stroke-miterlimit="10"/>
<path d="M224.95 268.028C224.95 268.028 218.157 283.752 243.003 285.297C243.003 285.297 224.337 288.768 216.146 280.895C216.146 280.895 209.861 276.853 211.194 267.075L224.929 268.028H224.95Z" fill="#252525" stroke="#231F20" stroke-width="1.05819" stroke-miterlimit="10"/>
</g>
<defs>
<clipPath id="clip0_420_1469">
<rect width="507" height="328.229" fill="white" transform="translate(0 0.00976562)"/>
</clipPath>
</defs>
</svg>
