<svg width="333" height="399" viewBox="0 0 333 399" fill="none" xmlns="http://www.w3.org/2000/svg">
<g clip-path="url(#clip0_420_1589)">
<path d="M252.229 252.797L231.574 222.387C231.574 222.387 215.595 200.246 221.819 178.785C221.819 178.785 224.606 165.191 237.519 156.117L277.653 210.465L252.26 252.797H252.229Z" fill="#EFEFEF" stroke="#231F20" stroke-width="1.54836" stroke-miterlimit="10"/>
<path d="M246.562 113.35C246.562 113.35 213.83 128.709 227.362 165.282C227.362 165.282 232.1 176.275 270.531 218.793L246.562 113.35Z" fill="#EFEFEF" stroke="#231F20" stroke-width="1.54836" stroke-miterlimit="10"/>
<path d="M269.725 50.1452C269.725 50.1452 234.175 67.0843 243.744 120.131L258.422 194.081C258.422 194.081 269.725 238.674 235.289 256.728C235.289 256.728 194.072 287.2 188.993 251.092L180.539 163.021C180.539 163.021 177.721 118.986 142.728 116.167L122.971 235.825C122.971 235.825 119.007 253.879 99.2502 284.382L43.3542 369.046H227.95L309.797 279.861C309.797 279.861 343.087 249.946 327.293 198.571L269.725 50.1143V50.1452Z" fill="#EFEFEF" stroke="#231F20" stroke-width="1.54836" stroke-miterlimit="10"/>
<path d="M197.571 140.198C222.199 140.198 242.164 120.234 242.164 95.6056C242.164 70.9776 222.199 51.0127 197.571 51.0127C172.943 51.0127 152.978 70.9776 152.978 95.6056C152.978 120.234 172.943 140.198 197.571 140.198Z" fill="#1E85C2" stroke="#231F20" stroke-width="1.54836" stroke-miterlimit="10"/>
<path d="M219.001 19.6438C218.722 20.9444 217.483 21.7496 216.183 21.5018C214.882 21.2541 214.077 19.9844 214.325 18.6838L217.483 3.26208C217.762 1.96146 219.001 1.15631 220.301 1.40405C221.602 1.65178 222.407 2.92144 222.159 4.22207L219.001 19.6438Z" fill="#1E85C2" stroke="#231F20" stroke-width="1.54836" stroke-miterlimit="10"/>
<path d="M184.937 18.7445C185.185 20.0451 184.349 21.2838 183.048 21.5316C181.747 21.7793 180.509 20.9432 180.261 19.6426L177.288 4.18987C177.04 2.88925 177.876 1.65056 179.177 1.40282C180.478 1.15508 181.716 1.9912 181.964 3.29182L184.937 18.7445Z" fill="#1E85C2" stroke="#231F20" stroke-width="1.54836" stroke-miterlimit="10"/>
<path d="M149.448 31.8441C150.191 32.9279 149.944 34.4144 148.891 35.1576C147.838 35.9008 146.32 35.6531 145.577 34.6002L136.473 21.7487C135.73 20.6649 135.977 19.1785 137.03 18.4352C138.083 17.692 139.6 17.9398 140.344 18.9927L149.448 31.8441Z" fill="#1E85C2" stroke="#231F20" stroke-width="1.54836" stroke-miterlimit="10"/>
<path d="M1.54836 397.319L56.0508 325.506L235.94 369.696L222.779 397.907L1.54836 397.319Z" fill="#252525" stroke="#231F20" stroke-width="1.54836" stroke-miterlimit="10"/>
<path d="M253.746 172.003C253.746 172.003 259.166 210.433 238.727 232.079L247.739 245.891C247.739 245.891 258.546 238.087 260.064 216.472C260.064 216.472 262.231 205.881 253.746 172.003Z" fill="#252525"/>
</g>
<defs>
<clipPath id="clip0_420_1589">
<rect width="332.31" height="398.115" fill="white" transform="translate(0 0.567383)"/>
</clipPath>
</defs>
</svg>
