<?xml version="1.0" encoding="utf-8"?>
<!-- Generator: Adobe Illustrator 28.2.0, SVG Export Plug-In . SVG Version: 6.00 Build 0)  -->
<svg version="1.1" id="Layer_1" xmlns="http://www.w3.org/2000/svg" xmlns:xlink="http://www.w3.org/1999/xlink" x="0px" y="0px"
	 width="910px" height="323px" viewBox="0 0 910 323" style="enable-background:new 0 0 910 323;" xml:space="preserve">
<style type="text/css">
	.st0{fill:#EFEFEF;stroke:#252525;stroke-width:0.5;stroke-miterlimit:10;}
	.st1{fill:#252525;stroke:#252525;stroke-width:0.5;stroke-miterlimit:10;}
	.st2{fill:none;stroke:#252525;stroke-width:0.5;stroke-miterlimit:10;}
	.st3{fill:#FFFFFF;stroke:#252525;stroke-width:0.5;stroke-miterlimit:10;}
	.st4{fill:#E44946;stroke:#252525;stroke-width:0.5;stroke-miterlimit:10;}
	.st5{fill:#F8B32B;stroke:#252525;stroke-width:0.5;stroke-miterlimit:10;}
	.st6{fill:#252525;stroke:#252525;stroke-miterlimit:10;}
	.st7{fill:#C4C3C2;stroke:#252525;stroke-width:0.5;stroke-miterlimit:10;}
	.st8{fill:#1E85C2;stroke:#252525;stroke-width:0.5;stroke-miterlimit:10;}
</style>
<polygon class="st7" points="619.8,194.1 589.1,183.7 558.5,194.1 559.1,224.8 619.2,224.8 "/>
<path class="st5" d="M533.8,233.5c-22.6,1.2-41.7,17.2-46.8,39.3l-7.8,33.8h110h110l-7.8-33.8c-5.1-22.1-24.2-38.1-46.8-39.3
	l-18.2-1c-4.1-0.2-7.2-3.7-7.1-7.8l0,0h-60.1l0,0c0.2,4.1-3,7.6-7.1,7.8L533.8,233.5z"/>
<path class="st7" d="M555.9,185.8L555.9,185.8c-4.1-0.4-7.2,3.6-5.7,7.5c0.7,1.8,1.6,3.7,2.9,5.4c2.3,3.2,6.9,3.9,10,1.4l0.6-0.5
	l-1.2-13.3L555.9,185.8z"/>
<path class="st7" d="M622.3,185.8L622.3,185.8c4.1-0.4,7.2,3.6,5.7,7.5c-0.7,1.8-1.6,3.7-2.9,5.4c-2.3,3.2-6.9,3.9-10,1.4l-0.6-0.5
	l1.2-13.3L622.3,185.8z"/>
<path class="st1" d="M623.4,178.9L623.4,178.9c0.4-2.1,0.6-4.3,0.6-6.6c0-19.3-15.6-34.9-34.9-34.9s-34.9,15.6-34.9,34.9
	c0,2.3,0.2,4.5,0.6,6.6l0,0c0,0,0,0.1,0.1,0.4c0,0,0,0.1,0,0.1c0.4,1.8,1.8,10.6,5.5,21.2c3.6,10.5,13.5,17.5,24.6,17.5h4h4
	c11.1,0,21-7,24.6-17.5c3.7-10.7,5.1-19.5,5.5-21.2c0,0,0-0.1,0-0.1C623.3,179.1,623.4,178.9,623.4,178.9z"/>
<path class="st0" d="M386.5,193.3c0,0,4.6,2.3,5.4,9.3c0.8,7-1.5,9.7-1.5,9.7l-14.8,4.5l-7-10.6l4.8-7.4L386.5,193.3z"/>
<path class="st2" d="M382,197.1c0,0,5.1,5.5,3,15.7"/>
<path class="st2" d="M377.8,203.1c0,0,2.5,2.9,1.4,8.2"/>
<path class="st1" d="M386.5,193.3c-4.2,3.2-7.4,6.2-9.1,10.9c-0.7,1.9-0.4,3.8,0.5,5.4c0-0.1,1.5-7.7,11.8-13.3
	C388.1,194.2,386.5,193.3,386.5,193.3z"/>
<path class="st0" d="M403.3,215.5c-5.1-5.8-8.4-3.5-15.2-2.9c-1.5,0.1-2.9,0.2-4.2,0.3c-4.7,0.3-8.3-4.3-6.6-8.7
	c1.7-4.6,4.9-7.7,9.1-10.9c2.9-2.2,5.6-4.6,7.8-6.6c2.9-2.7,4.6-6.6,4.6-10.6v-1.5l-4.2,2.9c-3.9,2.7-8,5.1-12.4,7l-2.8,1.2
	c-8.8,3.9-16.3,10.1-21.7,17.9l-8.2,11.8l18.4,16.1c0,0,16.4-5.1,22.8-9.3C399.1,216.9,403.3,215.5,403.3,215.5z"/>
<polygon class="st8" points="306.2,253.8 306.2,253.8 312.8,287.7 339,292 368,231.6 349.6,215.5 "/>
<path class="st3" d="M234.9,131.3c5.2-5.2,8.2-11.7,8.2-18.7c0-17.2-18.6-31.2-41.5-31.2c-22.9,0-41.5,14-41.5,31.2
	c0,17.2,18.6,31.2,41.5,31.2c8.3,0,15.9-1.8,22.4-4.9l22.7,6.9L234.9,131.3z"/>
<path class="st3" d="M687.4,101.1c-16.2,0-29.4,11.4-29.4,25.5c0,3.8,1,7.5,2.7,10.7l-11.3,14.8l20.7-4.8c4.8,3,10.8,4.8,17.2,4.8
	c16.2,0,29.4-11.4,29.4-25.5S703.6,101.1,687.4,101.1z"/>
<path class="st0" d="M510.4,45.3c-5.8,0-11.3,1-16.4,2.9c-8.7-16.4-25.9-27.6-45.8-27.6c-26.5,0-48.3,19.9-51.4,45.6
	c-2.4-0.5-4.8-0.7-7.3-0.7c-20.8,0-37.7,16.9-37.7,37.7c0,20.8,16.9,37.7,37.7,37.7h120.9c26.4,0,47.8-21.4,47.8-47.8
	C558.2,66.7,536.8,45.3,510.4,45.3z"/>
<path class="st0" d="M327,219.3c0.3-0.2,0.7-0.4,1-0.6c7.6-5,12.3-13.6,12-23.1l-0.2-8.7l4.8-3.9l-1.9-2.7c-2.2-3.1-4-6.5-5.4-10
	l-5.8-15.1c-7.1-18.6-28.2-27.7-46.6-20.2l0,0c-18.2,7.4-27,28-19.7,46.2l9.1,22.8c3.1,7.7,4.7,15.9,4.7,24.2v5.7h51L327,219.3z"/>
<path class="st8" d="M270.7,248l-4,2.3c-11.2,6.4-20.2,16.1-25.8,27.8l-13.6,28.4h86.2H408l-5.3-23.9c-3.6-16.5-16.8-29.2-33.4-32.3
	l-37.4-7l-2-9.6h-51C279,239.6,275.8,245.1,270.7,248z"/>
<line class="st2" x1="330.8" y1="203.4" x2="339.4" y2="202.4"/>
<path class="st7" d="M311.7,208.3c4.7-6,6.2-13.9,3.9-21.2l-1.4-4.5c-0.6-1.8,0.2-3.8,1.9-4.8c1.9-1.1,4.3-0.4,5.4,1.4l2.8,4.4
	c1.2,1.9,3.7,2.4,5.5,1.1c1.5-1.1,2-3,1.3-4.6l-3.1-7.2c-2.7-6.2-1.9-13.3,2-18.7l0.7-0.9c-7.8-17.3-28-25.5-45.8-18.3l0,0
	c-18.2,7.4-27,28-19.7,46.2l9.1,22.8c1.1,2.8,2,5.6,2.7,8.5l7.2,3.1C294,219.5,305.2,216.6,311.7,208.3z"/>
<path class="st3" d="M328,218.7c-2.5,1.7-5.4,2.9-8.4,3.7"/>
</svg>
