<?xml version="1.0" encoding="utf-8"?>
<!-- Generator: Adobe Illustrator 28.2.0, SVG Export Plug-In . SVG Version: 6.00 Build 0)  -->
<svg version="1.1" id="Layer_1" xmlns="http://www.w3.org/2000/svg" xmlns:xlink="http://www.w3.org/1999/xlink" x="0px" y="0px"
	 width="910px" height="323px" viewBox="0 0 910 323" style="enable-background:new 0 0 910 323;" xml:space="preserve">
<style type="text/css">
	.st0{fill:#EFEFEF;stroke:#252525;stroke-width:0.5;stroke-miterlimit:10;}
	.st1{fill:#252525;stroke:#252525;stroke-width:0.5;stroke-miterlimit:10;}
	.st2{fill:none;stroke:#252525;stroke-width:0.5;stroke-miterlimit:10;}
	.st3{fill:#FFFFFF;stroke:#252525;stroke-width:0.5;stroke-miterlimit:10;}
	.st4{fill:#E44946;stroke:#252525;stroke-width:0.5;stroke-miterlimit:10;}
	.st5{fill:#F8B32B;stroke:#252525;stroke-width:0.5;stroke-miterlimit:10;}
	.st6{fill:#252525;stroke:#252525;stroke-miterlimit:10;}
	.st7{fill:#C4C3C2;stroke:#252525;stroke-width:0.5;stroke-miterlimit:10;}
	.st8{fill:#1E85C2;stroke:#252525;stroke-width:0.5;stroke-miterlimit:10;}
</style>
<path class="st0" d="M350.5,72l-5.3,4.4c-4,3.3-8.9,5.4-14.1,6.1l-23.7,2.9c-4.5,0.6-8.9,1.8-13,3.7c-3.4,1.6-7.1,4-10,7.3L274,94.3
	l5.1-23.9l28.8-1.4l35.2-3.7L350.5,72z"/>
<polygon class="st1" points="114.8,176.2 187.5,118.4 235.9,162.5 201,219.7 "/>
<path class="st0" d="M187.5,118.4l76.6-59.3c11.5-8.9,25.9-12.9,40.4-11.3l70.9,8c0,0-7.1,15-27.4,16.5c-14.4,1.1-41.8,4-56.6,5.6
	c-5.7,0.6-10,5.4-10,11.1v0c0,6.9,6.3,12.2,13.1,11l15.1-2.6c11.8-2,23.7,3.3,30.1,13.5l0,0l-5.5,1.9c-6.3,2.2-12.5,4.8-18.6,7.7
	l-24.6,11.7c-7.5,3.5-15.5,5.8-23.7,6.7l-18.3,2l-13.2,21.5L187.5,118.4z"/>
<path class="st2" d="M249.1,140.9c0,0-9.5,1.3-19.1-4.3"/>
<polygon class="st1" points="778.4,150.4 714.8,117.1 681.9,160.7 730.2,218.7 "/>
<path class="st0" d="M627.3,77l-36.9,28.9l6.3,1.7c7.6,2.1,15.8,0.5,22.1-4.4L642.5,85L627.3,77z"/>
<path class="st0" d="M636.4,65.5l5.2-2c5.2-2,11-0.7,14.9,3.3l9.9,10.2L636.4,65.5z"/>
<path class="st0" d="M618.8,103.3h8.2c4.8,0,9.5-1.6,13.2-4.6l7.3-5.9l-5.1-7.8L618.8,103.3z"/>
<path class="st0" d="M714.8,117.1c0,0-25.8-36.5-69.8-53.1c-10.5-4-21.9-4.9-33-2.7l-36.5,7.3l7.2,5c6.1,4.2,13.4,6.2,20.8,5.8
	l11.3-0.7c8.4-0.5,16.7,2.7,22.5,8.9c4.2,4.5,8.6,10.9,11.7,19.5c2.8,7.8-2.4,16.2-10.6,17.2l-30.5,3.7c-5.4,0.7-10.5,3.2-14,7.4
	c-1.6,1.9-3.1,4.4-4.2,7.4l9.7,1.3c7.2,1,14.3,2.9,21,5.8l15.1,6.4c9.8,4.2,20.5,6,31.2,5.3l15.2-1L714.8,117.1z"/>
<path class="st3" d="M421,128l-33.6,21.3l-13-20.6c-2.1-3.4-1.1-7.9,2.3-10l21.3-13.5c3.4-2.1,7.9-1.1,10,2.3L421,128z"/>
<path class="st4" d="M398.1,105l-21.6,13.6l-4.4-7c-2.2-3.4-1.1-7.9,2.3-10.1l9.2-5.8c3.4-2.2,7.9-1.1,10.1,2.3L398.1,105z"/>
<rect x="542.1" y="94.3" transform="matrix(0.7071 0.7071 -0.7071 0.7071 244.8976 -355.7511)" class="st5" width="19.5" height="46.9"/>
<path class="st5" d="M605,106.8l-24.6-16.3l-16.3-24.6c-4.4-6.7-13.9-7.7-19.6-2l0,0c-5,5-5,13,0,18l22.2,22.2l22.2,22.2
	c5,5,13,5,18,0l0,0C612.7,120.7,611.7,111.2,605,106.8z"/>
<circle class="st3" cx="553.9" cy="73.3" r="5.9"/>
<circle class="st3" cx="597.6" cy="117" r="5.9"/>
<path class="st6" d="M638.1,88.4c-0.2-0.3-0.5-0.5-0.7-0.8c-3.6-3.9-8.3-6.6-13.4-8l-2.5,2c2.9,1.8,7.9,5.2,12.3,10.1
	c2,2.2,3.9,4.8,5.5,7.6c0.3-0.2,0.6-0.4,0.9-0.7l3.5-2.8C641.9,93,640,90.5,638.1,88.4z"/>
<path class="st6" d="M291.5,77.9c-5.7,0.6-10,5.4-10,11.1c0,2.9,1.1,5.5,2.9,7.5l0,0c2-2.2,4.3-4,6.7-5.5c0.9-6.5,3.1-11,4.7-13.6
	C294.2,77.6,292.8,77.8,291.5,77.9z"/>
<path class="st3" d="M511.9,113c-5.4,0-10.6,1-15.4,2.7c-8.1-15.4-24.3-25.9-42.9-25.9c-24.8,0-45.3,18.7-48.1,42.7
	c-2.2-0.4-4.5-0.7-6.9-0.7c-19.5,0-35.3,15.8-35.3,35.3c0,19.5,15.8,35.3,35.3,35.3h113.3c24.7,0,44.8-20,44.8-44.8
	C556.6,133,536.6,113,511.9,113z"/>
<path class="st3" d="M464,183.1h-1.2c-5.9,0-10.6-4.7-10.6-10.6v-48.8c0-5.9,4.7-10.6,10.6-10.6h1.2c5.9,0,10.6,4.7,10.6,10.6v48.8
	C474.6,178.4,469.9,183.1,464,183.1z"/>
<path class="st7" d="M449.3,226.4c16.6-14.2,36.7-29.1,36.7-29.1c-9.8-6.6-22.5-7.5-33-2.2l-13.7,6.8l3.1-5.5
	c5.2-9.2,12.2-17.3,20.6-23.7l4.1-3.1c9.6-7.3,15.2-18.6,15.2-30.6V137l-32.4,18.1c-2.1,1.2-4.1,2.4-6.1,3.8
	c-7.1-3.2-13.1-2.7-18-0.8c-9.9-4.5-19.2-1.8-26.3,2.4l-0.3-0.1c-5.3-1.7-11.1-1.6-16.2,0.4c-37.8,14.8-53.1,74-53.1,74l-2.2,8l0,0
	l76.4,23.4C413.3,247.1,432.7,240.6,449.3,226.4z"/>
<polygon class="st1" points="327.6,242.9 311.6,300.4 331.5,300.4 404,300.4 404,266.2 327.6,242.9 "/>
<path class="st2" d="M425.9,175.6l4.3-4.8c5.6-6.3,12.2-11.6,19.6-15.7"/>
<path class="st2" d="M408.9,172.5c0,0,9.5-14.3,22.3-15.8"/>
<path class="st2" d="M385.7,172.5c0,0,8.3-10.9,20.2-15.1"/>
<line class="st2" x1="439.3" y1="202" x2="433.9" y2="213.8"/>
<circle class="st8" cx="463.4" cy="134.5" r="14.5"/>
</svg>
