<?xml version="1.0" encoding="UTF-8"?>
<svg id="Layer_1" data-name="Layer 1" xmlns="http://www.w3.org/2000/svg" viewBox="0 0 1000 274.21">
  <defs>
    <style>
      .cls-1 {
        fill: #f8b32b;
      }

      .cls-2 {
        fill: #fff;
      }

      .cls-3 {
        fill: #e44946;
      }

      .cls-4, .cls-5, .cls-6 {
        fill: #252525;
      }

      .cls-7 {
        fill: #1e85c2;
      }

      .cls-5 {
        stroke-width: 2px;
      }

      .cls-5, .cls-6 {
        stroke: #252525;
        stroke-miterlimit: 10;
      }

      .cls-6 {
        stroke-width: 1.39px;
      }
    </style>
  </defs>
  <g>
    <path class="cls-4" d="m111.3,105.58v111.35c0,19.94-10.86,37.31-26.95,46.63,7.94,4.6,17.12,7.27,26.95,7.27,29.77,0,53.9-24.13,53.9-53.9V59.03l-53.9,46.55Z"/>
    <path class="cls-2" d="m111.31,105.59h0v-46.72c0-19.94-10.86-37.31-26.95-46.63-16.1,9.32-26.95,26.69-26.95,46.63v93.27l53.9-46.55Z"/>
    <path class="cls-1" d="m84.35,263.56c16.1-9.32,26.95-26.69,26.95-46.63v-111.35l-53.9,46.55v64.79c0,19.94,10.86,37.31,26.95,46.63Z"/>
    <path class="cls-7" d="m111.31,4.95c-9.83,0-19.02,2.67-26.95,7.27,16.1,9.32,26.95,26.69,26.95,46.63v46.72h0s53.9-46.55,53.9-46.55v-.17c0-29.77-24.13-53.9-53.9-53.9Z"/>
    <path class="cls-3" d="m57.44,216.93V58.86c0-19.94,10.86-37.31,26.95-46.63-7.94-4.6-17.12-7.27-26.95-7.27C27.67,4.96,3.54,29.09,3.54,58.86v158.07c0,29.77,24.13,53.9,53.9,53.9,9.83,0,19.02-2.67,26.95-7.27-16.1-9.32-26.95-26.69-26.95-46.63Z"/>
  </g>
  <path class="cls-5" d="m315.92,264.83c-2.01,1.26-4.28,2.39-6.79,3.4-2.52,1.01-5.22,1.8-8.11,2.39-2.89.59-5.93.88-9.12.88-6.79,0-12.94-1.17-18.43-3.52-5.49-2.35-10.21-5.6-14.15-9.75-3.94-4.15-6.98-8.93-9.12-14.34-2.14-5.41-3.21-11.13-3.21-17.17,0-6.46,1.15-12.47,3.46-18.05,2.31-5.58,5.51-10.46,9.62-14.65,4.11-4.19,8.89-7.46,14.34-9.81,5.45-2.35,11.32-3.52,17.61-3.52,4.44,0,8.66.61,12.64,1.82,3.98,1.22,7.69,2.83,11.13,4.84l-1.89,3.77c-3.1-1.84-6.5-3.35-10.19-4.53-3.69-1.17-7.59-1.76-11.7-1.76-5.53,0-10.78,1.07-15.72,3.21-4.95,2.14-9.27,5.12-12.96,8.93-3.69,3.82-6.6,8.26-8.74,13.33-2.14,5.08-3.21,10.5-3.21,16.29s.94,10.78,2.83,15.72c1.89,4.95,4.61,9.29,8.18,13.02,3.56,3.73,7.82,6.67,12.77,8.81,4.95,2.14,10.52,3.21,16.73,3.21,4.19,0,8.13-.59,11.82-1.76,3.69-1.17,7.04-2.68,10.06-4.53l2.14,3.77Z"/>
  <path class="cls-5" d="m336.43,175.4h4.15v95.1h-4.15v-95.1Z"/>
  <path class="cls-5" d="m358.69,246.09c0-4.61,1.13-8.85,3.4-12.7,2.26-3.86,5.3-6.92,9.12-9.18,3.81-2.26,8.11-3.4,12.89-3.4s9.22,1.13,13.08,3.4c3.86,2.26,6.9,5.33,9.12,9.18,2.22,3.86,3.33,8.09,3.33,12.7s-1.11,8.97-3.33,12.83c-2.22,3.86-5.28,6.9-9.18,9.12-3.9,2.22-8.24,3.33-13.02,3.33s-9.08-1.09-12.89-3.27c-3.82-2.18-6.86-5.16-9.12-8.93-2.26-3.77-3.4-8.13-3.4-13.08Zm4.15.13c0,4.02.94,7.67,2.83,10.94,1.89,3.27,4.44,5.87,7.67,7.8,3.23,1.93,6.81,2.89,10.76,2.89s7.53-.96,10.76-2.89c3.23-1.93,5.79-4.53,7.67-7.8,1.89-3.27,2.83-6.92,2.83-10.94s-.94-7.57-2.83-10.88c-1.89-3.31-4.45-5.95-7.67-7.92-3.23-1.97-6.81-2.96-10.76-2.96s-7.76,1.03-10.94,3.08c-3.19,2.06-5.7,4.76-7.55,8.11-1.85,3.36-2.77,6.88-2.77,10.57Z"/>
  <path class="cls-5" d="m442.84,271.63c-4.45,0-8.01-1.34-10.69-4.02-2.68-2.68-4.11-6.12-4.28-10.31v-35.1h4.15v33.96c.08,3.35,1.13,6.12,3.14,8.3,2.01,2.18,4.99,3.35,8.93,3.52,3.27,0,6.37-.82,9.31-2.45,2.93-1.64,5.3-3.9,7.11-6.79,1.8-2.89,2.7-6.14,2.7-9.75v-26.79h4.15v48.3h-3.65l-.38-14.97.5,2.14c-.75,2.6-2.2,4.97-4.34,7.11-2.14,2.14-4.65,3.82-7.55,5.03-2.89,1.21-5.93,1.82-9.12,1.82Z"/>
  <path class="cls-5" d="m510.26,271.37c-4.53,0-8.68-1.11-12.45-3.33-3.77-2.22-6.75-5.24-8.93-9.06-2.18-3.81-3.27-8.11-3.27-12.89,0-5.11,1.11-9.56,3.33-13.33,2.22-3.77,5.24-6.69,9.06-8.74,3.82-2.05,8.03-3.08,12.64-3.08,4.86,0,9.41,1.34,13.65,4.02,4.23,2.69,7.27,6.12,9.12,10.31l-.63,2.14v-62.01h4.15v95.1h-4.28v-15.72l.75,2.39c-1.93,4.19-4.97,7.61-9.12,10.25-4.15,2.64-8.83,3.96-14.03,3.96Zm.88-3.65c3.94,0,7.53-.88,10.75-2.64,3.23-1.76,5.81-4.17,7.74-7.23,1.93-3.06,2.93-6.52,3.02-10.38v-5.16c-.59-3.35-1.91-6.37-3.96-9.06-2.06-2.68-4.61-4.84-7.67-6.48-3.06-1.64-6.35-2.45-9.87-2.45-4.03,0-7.65.92-10.88,2.77-3.23,1.85-5.79,4.4-7.67,7.67-1.89,3.27-2.83,7.04-2.83,11.32,0,3.94.96,7.57,2.89,10.88,1.93,3.31,4.51,5.93,7.74,7.86,3.23,1.93,6.81,2.89,10.76,2.89Z"/>
  <path class="cls-5" d="m644.1,189.86c-2.43-1.17-5.54-2.28-9.31-3.33-3.77-1.05-7.59-1.57-11.45-1.57-6.21,0-11.15,1.55-14.84,4.65-3.69,3.1-5.53,7-5.53,11.7,0,3.52,1.03,6.44,3.08,8.74,2.05,2.31,4.76,4.26,8.11,5.85,3.35,1.59,6.92,3.14,10.69,4.65,3.02,1.09,5.97,2.31,8.87,3.65,2.89,1.34,5.53,2.96,7.92,4.84,2.39,1.89,4.3,4.26,5.72,7.11,1.42,2.85,2.14,6.33,2.14,10.44,0,5.03-1.18,9.41-3.52,13.15-2.35,3.73-5.58,6.63-9.69,8.68-4.11,2.06-8.81,3.08-14.09,3.08-4.61,0-8.76-.59-12.45-1.76-3.69-1.17-6.81-2.47-9.37-3.9-2.56-1.42-4.51-2.56-5.85-3.4l2.01-3.65c1.84,1.34,4.09,2.68,6.73,4.02,2.64,1.34,5.55,2.5,8.74,3.46,3.19.96,6.37,1.45,9.56,1.45,3.86,0,7.59-.77,11.2-2.33,3.6-1.55,6.56-3.88,8.87-6.98,2.31-3.1,3.46-7,3.46-11.7s-1.11-8.45-3.33-11.26c-2.22-2.81-5.08-5.07-8.55-6.79-3.48-1.72-7.15-3.29-11.01-4.72-2.85-1.09-5.68-2.24-8.49-3.46-2.81-1.21-5.37-2.64-7.67-4.28-2.31-1.64-4.13-3.63-5.47-5.97-1.34-2.35-2.01-5.16-2.01-8.43,0-4.11,1.07-7.69,3.21-10.75,2.14-3.06,5.03-5.45,8.68-7.17,3.65-1.72,7.78-2.62,12.39-2.7,3.69,0,7.67.5,11.95,1.51,4.28,1.01,7.97,2.31,11.07,3.9l-1.76,3.27Z"/>
  <path class="cls-5" d="m689.88,271.37c-4.86,0-9.2-1.11-13.02-3.33-3.82-2.22-6.84-5.24-9.06-9.06-2.22-3.81-3.33-8.07-3.33-12.77s1.13-8.97,3.4-12.83c2.26-3.86,5.32-6.92,9.18-9.18,3.86-2.26,8.13-3.4,12.83-3.4,5.62,0,10.33,1.62,14.15,4.84,3.81,3.23,6.6,7.36,8.36,12.39l-43.02,17.11-1.26-3.14,40.63-16.1-1.01,1.51c-1.59-3.52-3.92-6.58-6.98-9.18-3.06-2.6-6.77-3.9-11.13-3.9-3.94,0-7.51.97-10.69,2.89-3.19,1.93-5.72,4.55-7.61,7.86-1.89,3.31-2.83,6.98-2.83,11.01,0,3.77.9,7.32,2.7,10.63,1.8,3.31,4.3,5.97,7.48,7.99,3.19,2.01,6.92,3.02,11.2,3.02,2.85,0,5.55-.52,8.11-1.57,2.56-1.05,4.8-2.41,6.73-4.09l2.39,2.89c-2.35,1.93-5.01,3.48-7.99,4.65-2.98,1.17-6.06,1.76-9.25,1.76Z"/>
  <path class="cls-5" d="m732.78,222.19l.5,14.97-.5-1.64c1.01-3.02,2.64-5.6,4.91-7.74,2.26-2.14,4.82-3.79,7.67-4.97,2.85-1.17,5.74-1.76,8.68-1.76l-.25,3.9c-3.69.08-7.09.94-10.19,2.58-3.1,1.64-5.56,3.86-7.36,6.67-1.8,2.81-2.7,5.97-2.7,9.5v26.79h-4.15v-48.3h3.4Z"/>
  <path class="cls-5" d="m786.99,272.51l-23.65-50.32h4.78l20.76,45.66h-2.64l20.38-45.66h4.53l-23.4,50.32h-.75Z"/>
  <path class="cls-5" d="m825.23,205.71c0-1.01.36-1.84,1.07-2.52.71-.67,1.53-1.01,2.45-1.01s1.74.36,2.45,1.07c.71.71,1.07,1.53,1.07,2.45,0,1.01-.36,1.85-1.07,2.52-.71.67-1.53,1.01-2.45,1.01s-1.74-.36-2.45-1.07c-.71-.71-1.07-1.53-1.07-2.45Zm1.38,16.48h4.15v48.3h-4.15v-48.3Z"/>
  <path class="cls-5" d="m890.39,265.84c-2.26,1.68-4.76,3.02-7.48,4.03-2.73,1.01-5.6,1.51-8.62,1.51-4.86,0-9.2-1.11-13.02-3.33-3.82-2.22-6.84-5.2-9.06-8.93-2.22-3.73-3.33-7.99-3.33-12.77s1.13-9.08,3.4-12.89c2.26-3.81,5.3-6.83,9.12-9.06,3.81-2.22,7.99-3.33,12.52-3.33,3.27,0,6.31.5,9.12,1.51,2.81,1.01,5.26,2.39,7.36,4.15l-2.26,2.89c-1.85-1.51-3.96-2.72-6.35-3.65-2.39-.92-4.93-1.38-7.61-1.38-3.94,0-7.51.96-10.69,2.89-3.19,1.93-5.72,4.55-7.61,7.86-1.89,3.31-2.83,6.98-2.83,11.01s.94,7.55,2.83,10.82c1.89,3.27,4.47,5.87,7.74,7.8,3.27,1.93,6.88,2.89,10.82,2.89,2.6,0,5.05-.42,7.36-1.26,2.31-.84,4.38-1.97,6.23-3.4l2.39,2.64Z"/>
  <path class="cls-5" d="m927.87,271.37c-4.86,0-9.2-1.11-13.02-3.33-3.82-2.22-6.84-5.24-9.06-9.06-2.22-3.81-3.33-8.07-3.33-12.77s1.13-8.97,3.4-12.83c2.26-3.86,5.32-6.92,9.18-9.18,3.86-2.26,8.13-3.4,12.83-3.4,5.62,0,10.33,1.62,14.15,4.84,3.81,3.23,6.6,7.36,8.36,12.39l-43.02,17.11-1.26-3.14,40.63-16.1-1.01,1.51c-1.59-3.52-3.92-6.58-6.98-9.18-3.06-2.6-6.77-3.9-11.13-3.9-3.94,0-7.51.97-10.69,2.89-3.19,1.93-5.72,4.55-7.61,7.86-1.89,3.31-2.83,6.98-2.83,11.01,0,3.77.9,7.32,2.7,10.63,1.8,3.31,4.3,5.97,7.48,7.99,3.19,2.01,6.92,3.02,11.2,3.02,2.85,0,5.55-.52,8.11-1.57,2.56-1.05,4.8-2.41,6.73-4.09l2.39,2.89c-2.35,1.93-5.01,3.48-7.99,4.65-2.98,1.17-6.06,1.76-9.25,1.76Z"/>
  <path class="cls-5" d="m977.93,271.5c-2.6,0-5.37-.48-8.3-1.45-2.94-.96-5.37-2.58-7.3-4.84l2.14-2.77c1.42,1.68,3.31,3.04,5.66,4.09,2.35,1.05,4.86,1.57,7.55,1.57,2.01,0,3.92-.31,5.72-.94,1.8-.63,3.29-1.68,4.47-3.14,1.17-1.47,1.76-3.46,1.76-5.97s-.65-4.34-1.95-5.72c-1.3-1.38-2.98-2.47-5.03-3.27-2.06-.8-4.17-1.57-6.35-2.33-3.35-1.09-6.19-2.56-8.49-4.4-2.31-1.84-3.46-4.61-3.46-8.3,0-2.68.63-4.97,1.89-6.86,1.26-1.89,2.93-3.33,5.03-4.34,2.1-1.01,4.4-1.51,6.92-1.51,2.26,0,4.65.42,7.17,1.26,2.52.84,4.74,2.26,6.67,4.28l-2.01,2.77c-1.34-1.76-3.14-3-5.41-3.71-2.26-.71-4.24-1.11-5.91-1.19-1.43,0-2.94.31-4.53.94-1.59.63-2.96,1.59-4.09,2.89-1.13,1.3-1.7,2.96-1.7,4.97s.52,3.65,1.57,4.91c1.05,1.26,2.41,2.26,4.09,3.02,1.68.75,3.44,1.47,5.28,2.14,2.35.84,4.63,1.74,6.86,2.7,2.22.96,4.05,2.29,5.47,3.96,1.42,1.68,2.14,3.94,2.14,6.79s-.61,5.37-1.82,7.55c-1.22,2.18-2.98,3.88-5.28,5.09-2.31,1.21-5.22,1.82-8.74,1.82Z"/>
  <path class="cls-6" d="m348.77,122.21c-2.27,1.32-4.9,2.57-7.89,3.76-2.99,1.2-6.18,2.24-9.59,3.14-3.41.9-6.84,1.58-10.31,2.06-3.47.48-6.75.72-9.86.72-9.8,0-18.7-1.64-26.71-4.93-8.01-3.28-14.85-7.86-20.52-13.71-5.68-5.85-10.04-12.64-13.08-20.34-3.05-7.71-4.57-16.04-4.57-25s1.7-17.8,5.11-25.81c3.41-8,8.07-14.97,13.98-20.88,5.91-5.91,12.78-10.51,20.61-13.8,7.82-3.29,16.16-4.93,25-4.93,6.33,0,12.37.84,18.1,2.51,5.74,1.68,10.99,3.94,15.77,6.81l-2.51,5.38c-2.87-1.79-6-3.32-9.41-4.57-3.41-1.25-6.93-2.24-10.57-2.96-3.65-.72-7.32-1.08-11.02-1.08-8.24,0-15.95,1.52-23.12,4.57-7.17,3.05-13.41,7.26-18.73,12.64-5.32,5.38-9.47,11.65-12.46,18.82-2.99,7.17-4.48,14.88-4.48,23.12s1.37,15.86,4.12,22.85c2.75,6.99,6.66,13.15,11.74,18.46,5.08,5.32,11.2,9.47,18.37,12.46,7.17,2.99,15.17,4.48,24.02,4.48,5.26,0,10.81-.66,16.67-1.97,5.85-1.31,10.93-3.16,15.23-5.56v-38.36h-29.57v-5.73h35.67v47.85Z"/>
  <path class="cls-6" d="m413.11,3.91c12.07,0,21.36,2.51,27.87,7.53,6.51,5.02,9.77,13.26,9.77,24.73,0,5.14-.93,9.98-2.78,14.52-1.85,4.54-4.69,8.33-8.51,11.38-3.83,3.05-8.72,4.99-14.7,5.82l-.36-2.69c5.85.6,11.26,2.3,16.22,5.11,4.96,2.81,8.99,6.48,12.1,11.02,3.11,4.54,4.66,9.86,4.66,15.95,0,5.62-1.11,10.49-3.32,14.61-2.21,4.12-5.14,7.56-8.78,10.31-3.65,2.75-7.83,4.81-12.55,6.18-4.72,1.37-9.59,2.06-14.61,2.06h-31.54V3.91h26.53Zm4.3,60.4c9.56,0,16.49-2.6,20.79-7.8,4.3-5.2,6.45-11.74,6.45-19.63,0-9.68-2.84-16.61-8.51-20.79-5.68-4.18-13.29-6.27-22.85-6.27h-20.61v54.49h24.73Zm.36,60.58c5.97,0,11.5-1.01,16.58-3.05,5.08-2.03,9.14-5.05,12.19-9.05,3.05-4,4.57-8.99,4.57-14.97,0-6.57-1.7-11.89-5.11-15.95-3.41-4.06-7.68-7.05-12.81-8.96-5.14-1.91-10.4-2.87-15.77-2.87h-24.73v54.84h25.09Z"/>
  <path class="cls-6" d="m515.63,131.7c-6.93,0-13.11-1.58-18.55-4.75-5.44-3.16-9.74-7.47-12.9-12.9-3.17-5.44-4.75-11.5-4.75-18.19s1.61-12.78,4.84-18.28c3.23-5.49,7.59-9.86,13.08-13.08,5.49-3.23,11.59-4.84,18.28-4.84,8,0,14.72,2.3,20.16,6.9,5.44,4.6,9.41,10.49,11.92,17.65l-61.3,24.37-1.79-4.48,57.89-22.94-1.43,2.15c-2.27-5.02-5.59-9.38-9.95-13.08-4.36-3.7-9.65-5.56-15.86-5.56-5.62,0-10.7,1.38-15.23,4.12-4.54,2.75-8.16,6.48-10.84,11.2-2.69,4.72-4.03,9.95-4.03,15.68,0,5.38,1.28,10.43,3.85,15.14,2.57,4.72,6.12,8.51,10.66,11.38,4.54,2.87,9.86,4.3,15.95,4.3,4.06,0,7.91-.74,11.56-2.24,3.64-1.49,6.84-3.43,9.59-5.82l3.41,4.12c-3.35,2.75-7.14,4.96-11.38,6.63-4.24,1.67-8.63,2.51-13.17,2.51Z"/>
  <path class="cls-6" d="m576.74,61.63l.72,21.33-.72-2.33c1.43-4.3,3.76-7.98,6.99-11.02,3.23-3.05,6.87-5.4,10.93-7.08,4.06-1.67,8.18-2.51,12.37-2.51l-.36,5.56c-5.26.12-10.1,1.34-14.52,3.67-4.42,2.33-7.92,5.5-10.49,9.5-2.57,4-3.85,8.51-3.85,13.53v38.18h-5.91V61.63h4.84Z"/>
  <path class="cls-6" d="m660.8,163.79c-3.47,0-6.87-.39-10.22-1.16-3.35-.78-6.75-2.21-10.22-4.3-3.47-2.09-7.11-4.99-10.93-8.69l3.41-3.94c5.49,5.38,10.51,8.87,15.06,10.49,4.54,1.61,8.78,2.42,12.73,2.42,7.77,0,13.86-1.23,18.28-3.67,4.42-2.45,7.59-5.71,9.5-9.77,1.91-4.06,2.93-8.6,3.05-13.62l.18-23.66,1.43,1.61c-2.39,6.57-6.66,11.92-12.82,16.04-6.15,4.12-13.06,6.18-20.7,6.18-6.57,0-12.52-1.58-17.83-4.75-5.32-3.16-9.56-7.47-12.73-12.9-3.17-5.44-4.75-11.5-4.75-18.19,0-7.17,1.64-13.44,4.93-18.82,3.28-5.38,7.68-9.59,13.17-12.64,5.49-3.05,11.59-4.57,18.28-4.57s13.11,1.82,18.91,5.47c5.79,3.65,10.01,8.4,12.64,14.25l-.72,3.05,1.08-20.97h5.02v70.08c0,5.49-1.17,10.69-3.5,15.59-2.33,4.9-6.16,8.87-11.47,11.92-5.32,3.05-12.58,4.57-21.78,4.57Zm-30.65-68.11c0,5.73,1.34,10.93,4.03,15.59,2.69,4.66,6.36,8.4,11.02,11.2,4.66,2.81,9.86,4.21,15.59,4.21s10.54-1.28,15.14-3.85c4.6-2.57,8.3-5.97,11.11-10.22,2.81-4.24,4.33-8.87,4.57-13.89v-8.96c-.96-4.78-2.9-9.05-5.82-12.81-2.93-3.76-6.54-6.72-10.84-8.87-4.3-2.15-9.02-3.23-14.16-3.23-5.74,0-10.93,1.29-15.59,3.85-4.66,2.57-8.33,6.18-11.02,10.84-2.69,4.66-4.03,10.04-4.03,16.13Z"/>
  <path class="cls-6" d="m759.56,131.7c-6.93,0-13.11-1.58-18.55-4.75-5.44-3.16-9.74-7.47-12.9-12.9-3.17-5.44-4.75-11.5-4.75-18.19s1.61-12.78,4.84-18.28c3.23-5.49,7.59-9.86,13.08-13.08,5.5-3.23,11.59-4.84,18.28-4.84,8,0,14.73,2.3,20.16,6.9,5.44,4.6,9.41,10.49,11.92,17.65l-61.3,24.37-1.79-4.48,57.89-22.94-1.43,2.15c-2.27-5.02-5.59-9.38-9.95-13.08-4.36-3.7-9.65-5.56-15.86-5.56-5.62,0-10.69,1.38-15.23,4.12-4.54,2.75-8.15,6.48-10.84,11.2-2.69,4.72-4.03,9.95-4.03,15.68,0,5.38,1.28,10.43,3.85,15.14,2.57,4.72,6.12,8.51,10.66,11.38,4.54,2.87,9.86,4.3,15.95,4.3,4.06,0,7.91-.74,11.56-2.24,3.64-1.49,6.84-3.43,9.59-5.82l3.41,4.12c-3.35,2.75-7.14,4.96-11.38,6.63-4.24,1.67-8.63,2.51-13.17,2.51Z"/>
  <path class="cls-6" d="m820.67,61.63l.72,21.33-.72-2.33c1.43-4.3,3.76-7.98,6.99-11.02,3.23-3.05,6.87-5.4,10.93-7.08,4.06-1.67,8.18-2.51,12.37-2.51l-.36,5.56c-5.26.12-10.1,1.34-14.52,3.67-4.42,2.33-7.92,5.5-10.49,9.5-2.57,4-3.85,8.51-3.85,13.53v38.18h-5.91V61.63h4.84Z"/>
  <path class="cls-6" d="m904.37,131.7c-6.93,0-13.11-1.58-18.55-4.75-5.44-3.16-9.74-7.47-12.9-12.9-3.17-5.44-4.75-11.5-4.75-18.19s1.61-12.78,4.84-18.28c3.23-5.49,7.59-9.86,13.08-13.08,5.5-3.23,11.59-4.84,18.28-4.84,8,0,14.73,2.3,20.16,6.9,5.44,4.6,9.41,10.49,11.92,17.65l-61.3,24.37-1.79-4.48,57.89-22.94-1.43,2.15c-2.27-5.02-5.59-9.38-9.95-13.08-4.36-3.7-9.65-5.56-15.86-5.56-5.62,0-10.69,1.38-15.23,4.12-4.54,2.75-8.15,6.48-10.84,11.2-2.69,4.72-4.03,9.95-4.03,15.68,0,5.38,1.28,10.43,3.85,15.14,2.57,4.72,6.12,8.51,10.66,11.38,4.54,2.87,9.86,4.3,15.95,4.3,4.06,0,7.91-.74,11.56-2.24,3.64-1.49,6.84-3.43,9.59-5.82l3.41,4.12c-3.35,2.75-7.14,4.96-11.38,6.63-4.24,1.67-8.63,2.51-13.17,2.51Z"/>
  <path class="cls-6" d="m967.64,31.34h5.91v31.37h22.22v4.84h-22.22v62.91h-5.91v-62.91h-15.41v-4.84h15.41v-31.37Z"/>
</svg>