<?xml version="1.0" encoding="UTF-8"?>
<svg id="Layer_1" data-name="Layer 1" xmlns="http://www.w3.org/2000/svg" viewBox="0 0 1000 280.51">
  <defs>
    <style>
      .cls-1 {
        fill: #fff;
        stroke-width: 2.66px;
      }

      .cls-1, .cls-2 {
        stroke: #fff;
        stroke-miterlimit: 10;
      }

      .cls-2 {
        fill: none;
        stroke-width: 10.65px;
      }
    </style>
  </defs>
  <line class="cls-2" x1="64.78" y1="152.69" x2="171.7" y2="60.35"/>
  <path class="cls-2" d="m118.24,106.52v110.03c0,29.42-23.85,53.27-53.27,53.27s-53.27-23.85-53.27-53.27V60.35c0-29.42,23.85-53.27,53.27-53.27s53.27,23.85,53.27,53.27v46.17Z"/>
  <path class="cls-2" d="m171.5,60.35c0-29.42-23.85-53.27-53.27-53.27s-53.27,23.85-53.27,53.27v156.2c0,29.42,23.85,53.27,53.27,53.27s53.27-23.85,53.27-53.27V60.35Z"/>
  <path class="cls-1" d="m322.43,264.11c-1.99,1.24-4.22,2.36-6.71,3.35-2.48.99-5.15,1.78-8.01,2.36-2.86.58-5.86.87-9,.87-6.71,0-12.77-1.16-18.2-3.48-5.42-2.32-10.08-5.53-13.97-9.63-3.89-4.1-6.89-8.82-9-14.16-2.11-5.34-3.17-10.99-3.17-16.95,0-6.38,1.14-12.32,3.42-17.82,2.28-5.51,5.44-10.33,9.5-14.47,4.06-4.14,8.78-7.37,14.16-9.69,5.38-2.32,11.18-3.48,17.39-3.48,4.39,0,8.55.6,12.48,1.8,3.93,1.2,7.6,2.79,10.99,4.78l-1.86,3.73c-3.06-1.82-6.42-3.31-10.06-4.47-3.64-1.16-7.49-1.74-11.55-1.74-5.46,0-10.64,1.06-15.53,3.17-4.89,2.11-9.15,5.05-12.79,8.82-3.64,3.77-6.52,8.16-8.63,13.17-2.11,5.01-3.17,10.37-3.17,16.08s.93,10.64,2.79,15.53c1.86,4.89,4.55,9.17,8.07,12.86,3.52,3.68,7.72,6.58,12.61,8.69,4.88,2.11,10.39,3.17,16.52,3.17,4.14,0,8.03-.58,11.68-1.74,3.64-1.16,6.96-2.65,9.94-4.47l2.11,3.73Z"/>
  <path class="cls-1" d="m342.68,175.8h4.1v93.9h-4.1v-93.9Z"/>
  <path class="cls-1" d="m364.66,245.61c0-4.55,1.12-8.73,3.35-12.54,2.24-3.81,5.24-6.83,9-9.07,3.77-2.24,8.01-3.35,12.73-3.35s9.11,1.12,12.92,3.35c3.81,2.24,6.81,5.26,9,9.07,2.19,3.81,3.29,7.99,3.29,12.54s-1.1,8.86-3.29,12.67c-2.19,3.81-5.22,6.81-9.07,9-3.85,2.2-8.14,3.29-12.86,3.29s-8.96-1.08-12.73-3.23c-3.77-2.15-6.77-5.09-9-8.82-2.24-3.73-3.35-8.03-3.35-12.92Zm4.1.12c0,3.97.93,7.58,2.79,10.81,1.86,3.23,4.39,5.8,7.58,7.7,3.19,1.91,6.73,2.86,10.62,2.86s7.43-.95,10.62-2.86c3.19-1.9,5.71-4.47,7.58-7.7,1.86-3.23,2.79-6.83,2.79-10.81s-.93-7.47-2.79-10.74c-1.86-3.27-4.39-5.88-7.58-7.82-3.19-1.94-6.73-2.92-10.62-2.92s-7.66,1.02-10.81,3.04c-3.15,2.03-5.63,4.7-7.45,8.01-1.82,3.31-2.73,6.79-2.73,10.43Z"/>
  <path class="cls-1" d="m447.75,270.82c-4.39,0-7.91-1.32-10.56-3.97-2.65-2.65-4.06-6.04-4.22-10.18v-34.65h4.1v33.54c.08,3.31,1.12,6.05,3.11,8.2,1.99,2.15,4.93,3.31,8.82,3.48,3.23,0,6.29-.81,9.19-2.42,2.9-1.61,5.24-3.85,7.02-6.71,1.78-2.86,2.67-6.06,2.67-9.63v-26.46h4.1v47.69h-3.6l-.37-14.78.5,2.11c-.75,2.57-2.17,4.91-4.28,7.02-2.11,2.11-4.6,3.77-7.45,4.97-2.86,1.2-5.86,1.8-9,1.8Z"/>
  <path class="cls-1" d="m514.32,270.57c-4.47,0-8.57-1.1-12.3-3.29-3.73-2.19-6.67-5.17-8.82-8.94-2.15-3.77-3.23-8.01-3.23-12.73,0-5.05,1.1-9.44,3.29-13.17,2.19-3.73,5.17-6.6,8.94-8.63,3.77-2.03,7.93-3.04,12.48-3.04,4.8,0,9.29,1.33,13.48,3.97,4.18,2.65,7.18,6.05,9,10.18l-.62,2.11v-61.23h4.1v93.9h-4.22v-15.53l.74,2.36c-1.91,4.14-4.91,7.51-9,10.12-4.1,2.61-8.72,3.91-13.85,3.91Zm.87-3.6c3.89,0,7.43-.87,10.62-2.61,3.19-1.74,5.73-4.12,7.64-7.14,1.9-3.02,2.9-6.44,2.98-10.25v-5.09c-.58-3.31-1.88-6.29-3.91-8.94-2.03-2.65-4.55-4.78-7.58-6.4-3.02-1.61-6.27-2.42-9.75-2.42-3.97,0-7.56.91-10.74,2.73-3.19,1.82-5.71,4.35-7.58,7.58-1.86,3.23-2.79,6.96-2.79,11.18,0,3.89.95,7.47,2.86,10.74,1.9,3.27,4.45,5.86,7.64,7.76,3.19,1.91,6.73,2.86,10.62,2.86Z"/>
  <path class="cls-1" d="m646.47,190.09c-2.4-1.16-5.47-2.25-9.19-3.29-3.73-1.03-7.49-1.55-11.3-1.55-6.13,0-11.01,1.53-14.66,4.6-3.64,3.06-5.46,6.91-5.46,11.55,0,3.48,1.01,6.36,3.04,8.63,2.03,2.28,4.7,4.2,8.01,5.78,3.31,1.57,6.83,3.11,10.56,4.6,2.98,1.08,5.9,2.28,8.76,3.6,2.86,1.33,5.46,2.92,7.82,4.78,2.36,1.86,4.24,4.2,5.65,7.02,1.41,2.82,2.11,6.25,2.11,10.31,0,4.97-1.16,9.3-3.48,12.98-2.32,3.68-5.51,6.54-9.56,8.57-4.06,2.03-8.69,3.04-13.91,3.04-4.55,0-8.65-.58-12.3-1.74-3.64-1.16-6.73-2.44-9.25-3.85-2.53-1.41-4.45-2.52-5.78-3.35l1.99-3.6c1.82,1.33,4.04,2.65,6.65,3.97,2.61,1.33,5.48,2.46,8.63,3.42,3.15.95,6.29,1.43,9.44,1.43,3.81,0,7.49-.76,11.05-2.3,3.56-1.53,6.48-3.83,8.76-6.89,2.28-3.06,3.42-6.91,3.42-11.55s-1.1-8.34-3.29-11.12c-2.19-2.77-5.01-5.01-8.45-6.71-3.44-1.7-7.06-3.25-10.87-4.66-2.82-1.08-5.61-2.21-8.38-3.42-2.78-1.2-5.3-2.61-7.58-4.22-2.28-1.62-4.08-3.58-5.4-5.9-1.33-2.32-1.99-5.09-1.99-8.32,0-4.06,1.06-7.6,3.17-10.62,2.11-3.02,4.97-5.38,8.57-7.08,3.6-1.7,7.68-2.59,12.23-2.67,3.64,0,7.58.5,11.8,1.49,4.22.99,7.87,2.28,10.93,3.85l-1.74,3.23Z"/>
  <path class="cls-1" d="m691.68,270.57c-4.8,0-9.09-1.1-12.86-3.29-3.77-2.19-6.75-5.17-8.94-8.94-2.2-3.77-3.29-7.97-3.29-12.61s1.12-8.86,3.35-12.67c2.24-3.81,5.26-6.83,9.07-9.07,3.81-2.24,8.03-3.35,12.67-3.35,5.55,0,10.2,1.59,13.97,4.78,3.77,3.19,6.52,7.27,8.26,12.23l-42.48,16.89-1.24-3.11,40.12-15.9-.99,1.49c-1.57-3.48-3.87-6.5-6.89-9.07-3.02-2.57-6.69-3.85-10.99-3.85-3.89,0-7.41.95-10.56,2.86-3.15,1.91-5.65,4.49-7.51,7.76-1.86,3.27-2.79,6.89-2.79,10.87,0,3.73.89,7.22,2.67,10.49,1.78,3.27,4.24,5.9,7.39,7.89,3.15,1.99,6.83,2.98,11.05,2.98,2.81,0,5.48-.52,8.01-1.55,2.52-1.03,4.74-2.38,6.64-4.04l2.36,2.86c-2.32,1.91-4.95,3.44-7.89,4.6-2.94,1.16-5.98,1.74-9.13,1.74Z"/>
  <path class="cls-1" d="m734.03,222.01l.5,14.78-.5-1.61c.99-2.98,2.61-5.53,4.84-7.64,2.24-2.11,4.76-3.75,7.58-4.91,2.81-1.16,5.67-1.74,8.57-1.74l-.25,3.85c-3.64.08-7,.93-10.06,2.55-3.06,1.61-5.49,3.81-7.27,6.58-1.78,2.78-2.67,5.9-2.67,9.38v26.46h-4.1v-47.69h3.35Z"/>
  <path class="cls-1" d="m787.57,271.69l-23.35-49.68h4.72l20.49,45.09h-2.61l20.12-45.09h4.47l-23.1,49.68h-.75Z"/>
  <path class="cls-1" d="m825.32,205.74c0-.99.35-1.82,1.06-2.48.7-.66,1.51-.99,2.42-.99s1.72.35,2.42,1.06c.7.7,1.06,1.51,1.06,2.42,0,.99-.35,1.82-1.06,2.48-.7.66-1.51.99-2.42.99s-1.72-.35-2.42-1.06c-.7-.7-1.06-1.51-1.06-2.42Zm1.37,16.27h4.1v47.69h-4.1v-47.69Z"/>
  <path class="cls-1" d="m889.66,265.11c-2.24,1.66-4.7,2.98-7.39,3.97-2.69.99-5.53,1.49-8.51,1.49-4.8,0-9.09-1.1-12.86-3.29-3.77-2.19-6.75-5.13-8.94-8.82-2.2-3.68-3.29-7.89-3.29-12.61s1.12-8.96,3.35-12.73c2.24-3.77,5.24-6.75,9-8.94,3.77-2.19,7.89-3.29,12.36-3.29,3.23,0,6.23.5,9,1.49,2.77.99,5.19,2.36,7.27,4.1l-2.24,2.86c-1.82-1.49-3.91-2.69-6.27-3.6-2.36-.91-4.87-1.37-7.51-1.37-3.89,0-7.41.95-10.56,2.86-3.15,1.91-5.65,4.49-7.51,7.76-1.86,3.27-2.79,6.89-2.79,10.87s.93,7.45,2.79,10.68c1.86,3.23,4.41,5.8,7.64,7.7,3.23,1.91,6.79,2.86,10.68,2.86,2.57,0,4.99-.41,7.27-1.24,2.28-.83,4.33-1.94,6.15-3.35l2.36,2.61Z"/>
  <path class="cls-1" d="m926.67,270.57c-4.8,0-9.09-1.1-12.86-3.29-3.77-2.19-6.75-5.17-8.94-8.94-2.2-3.77-3.29-7.97-3.29-12.61s1.12-8.86,3.35-12.67c2.24-3.81,5.26-6.83,9.07-9.07,3.81-2.24,8.03-3.35,12.67-3.35,5.55,0,10.2,1.59,13.97,4.78,3.77,3.19,6.52,7.27,8.26,12.23l-42.48,16.89-1.24-3.11,40.12-15.9-.99,1.49c-1.57-3.48-3.87-6.5-6.89-9.07-3.02-2.57-6.69-3.85-10.99-3.85-3.89,0-7.41.95-10.56,2.86-3.15,1.91-5.65,4.49-7.51,7.76-1.86,3.27-2.79,6.89-2.79,10.87,0,3.73.89,7.22,2.67,10.49,1.78,3.27,4.24,5.9,7.39,7.89,3.15,1.99,6.83,2.98,11.05,2.98,2.81,0,5.48-.52,8.01-1.55,2.52-1.03,4.74-2.38,6.64-4.04l2.36,2.86c-2.32,1.91-4.95,3.44-7.89,4.6-2.94,1.16-5.98,1.74-9.13,1.74Z"/>
  <path class="cls-1" d="m976.1,270.7c-2.57,0-5.3-.48-8.2-1.43-2.9-.95-5.3-2.55-7.2-4.78l2.11-2.73c1.41,1.66,3.27,3,5.59,4.04,2.32,1.04,4.8,1.55,7.45,1.55,1.99,0,3.87-.31,5.65-.93,1.78-.62,3.25-1.66,4.41-3.11,1.16-1.45,1.74-3.42,1.74-5.9s-.64-4.29-1.92-5.65c-1.29-1.37-2.94-2.44-4.97-3.23-2.03-.79-4.12-1.55-6.27-2.3-3.31-1.08-6.11-2.52-8.38-4.35-2.28-1.82-3.42-4.55-3.42-8.2,0-2.65.62-4.91,1.86-6.77,1.24-1.86,2.9-3.29,4.97-4.28,2.07-.99,4.35-1.49,6.83-1.49,2.24,0,4.6.42,7.08,1.24,2.48.83,4.68,2.24,6.58,4.22l-1.99,2.73c-1.33-1.74-3.11-2.96-5.34-3.66-2.24-.7-4.18-1.1-5.84-1.18-1.41,0-2.9.31-4.47.93-1.57.62-2.92,1.57-4.04,2.86-1.12,1.29-1.68,2.92-1.68,4.91s.52,3.6,1.55,4.84c1.03,1.24,2.38,2.24,4.04,2.98,1.66.75,3.39,1.45,5.22,2.11,2.32.83,4.57,1.72,6.77,2.67,2.19.95,3.99,2.26,5.4,3.91,1.41,1.66,2.11,3.89,2.11,6.71s-.6,5.3-1.8,7.45c-1.2,2.15-2.94,3.83-5.22,5.03-2.28,1.2-5.15,1.8-8.63,1.8Z"/>
  <path class="cls-1" d="m354.87,123.28c-2.24,1.3-4.84,2.54-7.79,3.72-2.95,1.18-6.11,2.21-9.47,3.1-3.36.88-6.76,1.56-10.18,2.03-3.42.47-6.67.71-9.73.71-9.68,0-18.47-1.62-26.37-4.87-7.91-3.24-14.66-7.76-20.26-13.54-5.61-5.78-9.91-12.48-12.92-20.09-3.01-7.61-4.51-15.84-4.51-24.69s1.68-17.58,5.04-25.48c3.36-7.9,7.96-14.78,13.8-20.62,5.84-5.84,12.62-10.38,20.35-13.63,7.73-3.24,15.96-4.87,24.69-4.87,6.25,0,12.21.83,17.87,2.48,5.66,1.65,10.85,3.89,15.57,6.72l-2.48,5.31c-2.83-1.77-5.93-3.27-9.29-4.51-3.36-1.24-6.84-2.21-10.44-2.92-3.6-.71-7.23-1.06-10.88-1.06-8.14,0-15.75,1.5-22.83,4.51-7.08,3.01-13.25,7.17-18.49,12.48-5.25,5.31-9.35,11.5-12.3,18.58-2.95,7.08-4.42,14.69-4.42,22.83s1.35,15.66,4.07,22.56c2.71,6.9,6.58,12.98,11.59,18.23,5.01,5.25,11.06,9.35,18.14,12.3,7.08,2.95,14.98,4.42,23.71,4.42,5.19,0,10.68-.65,16.46-1.95,5.78-1.3,10.8-3.12,15.04-5.49v-37.87h-29.2v-5.66h35.22v47.25Z"/>
  <path class="cls-1" d="m418.4,6.48c11.92,0,21.09,2.48,27.52,7.43,6.43,4.95,9.64,13.1,9.64,24.42,0,5.07-.92,9.85-2.74,14.33-1.83,4.48-4.63,8.23-8.41,11.24-3.78,3.01-8.61,4.93-14.51,5.75l-.35-2.65c5.78.59,11.12,2.27,16.02,5.04,4.89,2.77,8.88,6.4,11.95,10.88,3.07,4.48,4.6,9.73,4.6,15.75,0,5.55-1.09,10.35-3.27,14.42-2.18,4.07-5.07,7.46-8.67,10.18-3.6,2.72-7.73,4.75-12.39,6.11-4.66,1.36-9.47,2.03-14.42,2.03h-31.15V6.48h26.19Zm4.25,59.64c9.44,0,16.28-2.57,20.53-7.7,4.25-5.13,6.37-11.59,6.37-19.38,0-9.56-2.8-16.4-8.41-20.53-5.61-4.13-13.13-6.19-22.56-6.19h-20.35v53.8h24.42Zm.35,59.82c5.9,0,11.35-1,16.37-3.01,5.01-2,9.03-4.98,12.03-8.94,3.01-3.95,4.51-8.88,4.51-14.78,0-6.49-1.68-11.74-5.04-15.75-3.36-4.01-7.58-6.96-12.65-8.85-5.07-1.89-10.26-2.83-15.57-2.83h-24.42v54.15h24.78Z"/>
  <path class="cls-1" d="m519.62,132.66c-6.84,0-12.95-1.56-18.32-4.69-5.37-3.12-9.62-7.37-12.74-12.74-3.13-5.37-4.69-11.35-4.69-17.96s1.59-12.62,4.78-18.05c3.19-5.42,7.49-9.73,12.92-12.92,5.43-3.19,11.44-4.78,18.05-4.78,7.9,0,14.54,2.27,19.91,6.81,5.37,4.54,9.29,10.35,11.77,17.43l-60.52,24.07-1.77-4.42,57.16-22.65-1.42,2.12c-2.24-4.96-5.52-9.26-9.82-12.92-4.31-3.66-9.53-5.49-15.66-5.49-5.55,0-10.56,1.36-15.04,4.07-4.49,2.72-8.05,6.4-10.71,11.06-2.65,4.66-3.98,9.82-3.98,15.48,0,5.31,1.27,10.29,3.8,14.95,2.54,4.66,6.04,8.41,10.53,11.24,4.48,2.83,9.73,4.25,15.75,4.25,4.01,0,7.81-.74,11.41-2.21,3.6-1.47,6.75-3.39,9.47-5.75l3.36,4.07c-3.3,2.72-7.05,4.9-11.24,6.55-4.19,1.65-8.53,2.48-13.01,2.48Z"/>
  <path class="cls-1" d="m579.97,63.47l.71,21.06-.71-2.3c1.42-4.25,3.72-7.88,6.9-10.88,3.19-3.01,6.78-5.34,10.79-6.99,4.01-1.65,8.08-2.48,12.21-2.48l-.35,5.49c-5.19.12-9.97,1.33-14.33,3.63-4.37,2.3-7.82,5.43-10.35,9.38-2.54,3.95-3.8,8.41-3.8,13.36v37.69h-5.84V63.47h4.78Z"/>
  <path class="cls-1" d="m662.97,164.34c-3.42,0-6.79-.38-10.09-1.15-3.3-.77-6.67-2.18-10.09-4.25-3.42-2.07-7.02-4.93-10.8-8.58l3.36-3.89c5.42,5.31,10.38,8.76,14.87,10.35,4.48,1.59,8.67,2.39,12.57,2.39,7.67,0,13.69-1.21,18.05-3.63,4.36-2.42,7.49-5.63,9.38-9.64,1.89-4.01,2.89-8.5,3.01-13.45l.18-23.36,1.42,1.59c-2.36,6.49-6.58,11.77-12.65,15.84-6.08,4.07-12.89,6.11-20.44,6.11-6.49,0-12.36-1.56-17.61-4.69-5.25-3.12-9.44-7.37-12.57-12.74-3.13-5.37-4.69-11.35-4.69-17.96,0-7.08,1.62-13.27,4.87-18.58,3.24-5.31,7.58-9.47,13.01-12.48,5.43-3.01,11.44-4.51,18.05-4.51s12.95,1.8,18.67,5.4c5.72,3.6,9.88,8.29,12.48,14.07l-.71,3.01,1.06-20.71h4.96v69.2c0,5.42-1.15,10.56-3.45,15.4-2.3,4.84-6.08,8.76-11.33,11.77-5.25,3.01-12.42,4.51-21.5,4.51Zm-30.26-67.25c0,5.66,1.33,10.8,3.98,15.4,2.65,4.6,6.28,8.29,10.88,11.06,4.6,2.77,9.73,4.16,15.4,4.16s10.41-1.27,14.95-3.8c4.54-2.54,8.2-5.9,10.97-10.09,2.77-4.19,4.27-8.76,4.51-13.72v-8.85c-.95-4.72-2.86-8.94-5.75-12.65-2.89-3.72-6.46-6.64-10.71-8.76-4.25-2.12-8.91-3.19-13.98-3.19-5.66,0-10.8,1.27-15.4,3.8-4.6,2.54-8.23,6.11-10.88,10.71-2.65,4.6-3.98,9.91-3.98,15.93Z"/>
  <path class="cls-1" d="m760.48,132.66c-6.84,0-12.95-1.56-18.32-4.69-5.37-3.12-9.62-7.37-12.74-12.74-3.13-5.37-4.69-11.35-4.69-17.96s1.59-12.62,4.78-18.05c3.19-5.42,7.49-9.73,12.92-12.92,5.43-3.19,11.44-4.78,18.05-4.78,7.9,0,14.54,2.27,19.91,6.81,5.37,4.54,9.29,10.35,11.77,17.43l-60.52,24.07-1.77-4.42,57.16-22.65-1.42,2.12c-2.24-4.96-5.52-9.26-9.82-12.92-4.31-3.66-9.53-5.49-15.66-5.49-5.55,0-10.56,1.36-15.04,4.07-4.48,2.72-8.05,6.4-10.71,11.06-2.65,4.66-3.98,9.82-3.98,15.48,0,5.31,1.27,10.29,3.8,14.95,2.54,4.66,6.04,8.41,10.53,11.24,4.48,2.83,9.73,4.25,15.75,4.25,4.01,0,7.81-.74,11.41-2.21,3.6-1.47,6.75-3.39,9.47-5.75l3.36,4.07c-3.3,2.72-7.05,4.9-11.24,6.55-4.19,1.65-8.53,2.48-13.01,2.48Z"/>
  <path class="cls-1" d="m820.82,63.47l.71,21.06-.71-2.3c1.42-4.25,3.72-7.88,6.9-10.88,3.19-3.01,6.78-5.34,10.8-6.99,4.01-1.65,8.08-2.48,12.21-2.48l-.35,5.49c-5.19.12-9.97,1.33-14.33,3.63-4.37,2.3-7.82,5.43-10.35,9.38-2.54,3.95-3.8,8.41-3.8,13.36v37.69h-5.84V63.47h4.78Z"/>
  <path class="cls-1" d="m903.47,132.66c-6.84,0-12.95-1.56-18.32-4.69-5.37-3.12-9.62-7.37-12.74-12.74-3.13-5.37-4.69-11.35-4.69-17.96s1.59-12.62,4.78-18.05c3.19-5.42,7.49-9.73,12.92-12.92,5.43-3.19,11.44-4.78,18.05-4.78,7.9,0,14.54,2.27,19.91,6.81,5.37,4.54,9.29,10.35,11.77,17.43l-60.52,24.07-1.77-4.42,57.16-22.65-1.42,2.12c-2.24-4.96-5.52-9.26-9.82-12.92-4.31-3.66-9.53-5.49-15.66-5.49-5.55,0-10.56,1.36-15.04,4.07-4.48,2.72-8.05,6.4-10.71,11.06-2.65,4.66-3.98,9.82-3.98,15.48,0,5.31,1.27,10.29,3.8,14.95,2.54,4.66,6.04,8.41,10.53,11.24,4.48,2.83,9.73,4.25,15.75,4.25,4.01,0,7.81-.74,11.41-2.21,3.6-1.47,6.75-3.39,9.47-5.75l3.36,4.07c-3.3,2.72-7.05,4.9-11.24,6.55-4.19,1.65-8.53,2.48-13.01,2.48Z"/>
  <path class="cls-1" d="m965.94,33.56h5.84v30.97h21.94v4.78h-21.94v62.12h-5.84v-62.12h-15.22v-4.78h15.22v-30.97Z"/>
</svg>