<svg width="21" height="19" viewBox="0 0 21 19" fill="none" xmlns="http://www.w3.org/2000/svg">
<path d="M9.33333 2.00924C8.34535 2.60813 7.54655 3.12939 6.93694 3.57301C6.32733 3.99446 5.70721 4.56007 5.07658 5.26987C4.48799 5.93531 4.03604 6.63401 3.72072 7.36599C3.40541 8.09797 3.18468 9.04067 3.05856 10.1941H4.57207C5.87538 10.1941 6.89489 10.5379 7.63063 11.2255C8.38739 11.8909 8.76577 12.878 8.76577 14.1867C8.76577 15.1183 8.42943 15.9945 7.75676 16.8152C7.1051 17.6137 6.2012 18.0129 5.04504 18.0129C3.23724 18.0129 1.94444 17.3919 1.16667 16.1497C0.388889 14.8854 0 13.2329 0 11.1922C0 9.75046 0.294294 8.44177 0.882883 7.26617C1.47147 6.06839 2.18619 5.0037 3.02703 4.07209C3.88889 3.1183 4.8033 2.30869 5.77027 1.64325C6.73724 0.977819 7.54655 0.434381 8.1982 0.0129395L9.33333 2.00924ZM21 2.00924C20.012 2.60813 19.2132 3.12939 18.6036 3.57301C17.994 3.99446 17.3739 4.56007 16.7432 5.26987C16.1336 5.95749 15.6712 6.66728 15.3559 7.39926C15.0616 8.10906 14.8514 9.04067 14.7252 10.1941H16.2387C17.542 10.1941 18.5616 10.5379 19.2973 11.2255C20.0541 11.8909 20.4324 12.878 20.4324 14.1867C20.4324 15.1183 20.0961 15.9945 19.4234 16.8152C18.7718 17.6137 17.8679 18.0129 16.7117 18.0129C14.9039 18.0129 13.6111 17.3919 12.8333 16.1497C12.0556 14.8854 11.6667 13.2329 11.6667 11.1922C11.6667 9.75046 11.961 8.44177 12.5495 7.26617C13.1381 6.06839 13.8529 5.0037 14.6937 4.07209C15.5556 3.1183 16.47 2.30869 17.4369 1.64325C18.4039 0.977819 19.2132 0.434381 19.8649 0.0129395L21 2.00924Z" fill="#D4D4D4"/>
</svg>
