<?xml version="1.0" encoding="utf-8"?>
<!-- Generator: Adobe Illustrator 28.2.0, SVG Export Plug-In . SVG Version: 6.00 Build 0)  -->
<svg version="1.1" id="Layer_1" xmlns="http://www.w3.org/2000/svg" xmlns:xlink="http://www.w3.org/1999/xlink" x="0px" y="0px"
	 width="580px" height="350px" viewBox="0 0 580 350" style="enable-background:new 0 0 580 350;" xml:space="preserve">
<style type="text/css">
	.st0{fill:#EFEFEF;stroke:#252525;stroke-width:0.5;stroke-miterlimit:10;}
	.st1{fill:#252525;stroke:#252525;stroke-width:0.5;stroke-miterlimit:10;}
	.st2{fill:none;stroke:#252525;stroke-width:0.5;stroke-miterlimit:10;}
	.st3{fill:#FFFFFF;stroke:#252525;stroke-width:0.5;stroke-miterlimit:10;}
	.st4{fill:#E44946;stroke:#252525;stroke-width:0.5;stroke-miterlimit:10;}
	.st5{fill:#F8B32B;stroke:#252525;stroke-width:0.5;stroke-miterlimit:10;}
	.st6{fill:#252525;stroke:#252525;stroke-miterlimit:10;}
	.st7{fill:#C4C3C2;stroke:#252525;stroke-width:0.5;stroke-miterlimit:10;}
	.st8{fill:#1E85C2;stroke:#252525;stroke-width:0.5;stroke-miterlimit:10;}
</style>
<path class="st0" d="M232.8,72.1l-5.4,3.4c-4.1,2.6-8.9,4-13.7,4l-22.1,0c-4.2,0-8.4,0.6-12.4,1.9c-3.3,1.1-7,2.9-10.1,5.6l-9.3-3.2
	l7.5-21.4l26.7,2l32.9,0.6L232.8,72.1z"/>
<polygon class="st1" points="26.7,127 77.3,96.2 116.8,142.3 95.6,169 "/>
<path class="st0" d="M77.3,96.2l77.4-45.9c11.6-6.9,25.4-8.9,38.5-5.8L257.7,60c0,0-8.3,13-27.1,12.1c-13.4-0.7-39-1.1-52.8-1.3
	c-5.3-0.1-9.8,3.8-10.5,9.1v0c-0.8,6.4,4.4,12,10.8,11.7l14.3-0.7c11.1-0.5,21.5,5.8,26.2,15.9l0,0l-5.3,1.1c-6.1,1.3-12.1,3-18,4.9
	l-24.1,8c-7.3,2.4-14.9,3.6-22.6,3.5l-17.1-0.2l-14.7,18.3L77.3,96.2z"/>
<path class="st2" d="M131.4,124c0,0-9,0.1-17.1-6.2"/>
<polygon class="st1" points="563.4,144.9 499.8,124.8 476.8,169.9 515.6,202.6 "/>
<path class="st0" d="M413.3,102.3l-29,32.4l6,0.6c7.3,0.7,14.6-2.1,19.5-7.6l18.7-20.6L413.3,102.3z"/>
<path class="st0" d="M419.7,90.3l4.4-2.6c4.4-2.6,10-2.4,14.2,0.6L449,96L419.7,90.3z"/>
<path class="st0" d="M409.8,127.7l7.5-1.3c4.4-0.8,8.4-3,11.3-6.4l5.8-6.6l-5.9-6.3L409.8,127.7z"/>
<path class="st0" d="M499.8,124.8c0,0-29.5-29.1-72.4-37.2c-10.3-1.9-20.9-0.9-30.6,2.9l-32.2,12.6l7.4,3.4
	c6.2,2.8,13.3,3.5,19.9,1.9l10.2-2.5c7.6-1.9,15.7-0.3,22,4.4c4.6,3.5,9.6,8.5,13.9,16c3.8,6.7,0.4,15.2-6.9,17.4l-27.3,8.3
	c-4.8,1.5-9.1,4.6-11.6,9c-1.2,2-2.1,4.5-2.6,7.5l9.1-0.4c6.8-0.3,13.5,0.4,20.1,1.9l14.8,3.4c9.7,2.2,19.7,2.2,29.4-0.2l13.8-3.4
	L499.8,124.8z"/>
<path class="st3" d="M275,142.7H238v-22.1c0-4,3.2-7.3,7.3-7.3h22.4c4,0,7.3,3.2,7.3,7.3V142.7z"/>
<path class="st4" d="M268.4,113.3h-23.7v-7.2c0-4,3.3-7.3,7.3-7.3h9.1c4,0,7.3,3.3,7.3,7.3V113.3z"/>
<rect x="350.4" y="119.4" transform="matrix(0.8199 0.5724 -0.5724 0.8199 145.534 -180.3417)" class="st5" width="18.1" height="43.5"/>
<path class="st5" d="M397.8,133.2l-25.2-10.9l-18.9-19.9c-5.1-5.4-14-4.8-18.2,1.4l0,0c-3.7,5.3-2.4,12.7,2.9,16.4l24,16.7l24,16.7
	c5.3,3.7,12.7,2.4,16.4-2.9l0,0C407,144.6,404.6,136.1,397.8,133.2z"/>
<circle class="st3" cx="345.6" cy="110.9" r="5.5"/>
<circle class="st3" cx="392.7" cy="143.7" r="5.5"/>
<path class="st6" d="M425,110.9c-0.3-0.2-0.5-0.4-0.8-0.6c-4-3-8.7-4.7-13.5-5.1l-2,2.2c3,1.1,8,3.4,12.9,7.2
	c2.2,1.7,4.4,3.7,6.3,6.1c0.2-0.2,0.5-0.5,0.7-0.8l2.7-3.1C429.3,114.5,427.1,112.6,425,110.9z"/>
<path class="st6" d="M177.7,70.7c-5.3-0.1-9.8,3.8-10.5,9.1c-0.3,2.7,0.4,5.2,1.8,7.2l0,0c2.1-1.8,4.4-3.2,6.8-4.3
	c1.5-5.9,4.1-9.8,5.9-12C180.3,70.8,178.9,70.8,177.7,70.7z"/>
<path class="st3" d="M326,142.7c-5,0-9.8,0.9-14.3,2.5c-7.5-14.3-22.5-24-39.8-24c-23.1,0-42.1,17.3-44.7,39.7
	c-2.1-0.4-4.2-0.6-6.4-0.6c-18.1,0-32.8,14.7-32.8,32.8c0,18.1,14.7,32.8,32.8,32.8H326c23,0,41.6-18.6,41.6-41.6
	C367.6,161.3,349,142.7,326,142.7z"/>
<path class="st3" d="M281.2,207.9h-0.3c-5.7,0-10.2-4.6-10.2-10.2v-44.6c0-5.7,4.6-10.2,10.2-10.2h0.3c5.7,0,10.2,4.6,10.2,10.2
	v44.6C291.4,203.3,286.8,207.9,281.2,207.9z"/>
<path class="st7" d="M267.9,247.7c15.4-13.2,34.1-27,34.1-27c-9.1-6.2-20.9-6.9-30.7-2l-12.7,6.4l2.9-5.1c4.8-8.6,11.4-16,19.2-22
	l3.8-2.9c8.9-6.7,14.1-17.2,14.1-28.4v-2.1l-30.1,16.8c-1.9,1.1-3.8,2.3-5.7,3.5c-6.6-2.9-12.2-2.6-16.7-0.8
	c-9.2-4.2-17.8-1.7-24.5,2.2l-0.2-0.1c-4.9-1.5-10.3-1.5-15.1,0.4c-35.1,13.7-49.3,68.7-49.3,68.7l-2.1,7.4l0,0l70.9,21.7
	C234.5,266.9,252.5,260.9,267.9,247.7z"/>
<polygon class="st1" points="154.9,263 140,316.5 158.5,316.5 225.8,316.5 225.8,284.7 154.9,263 "/>
<path class="st2" d="M246.2,200.5l4-4.5c5.2-5.8,11.4-10.7,18.2-14.5"/>
<path class="st2" d="M230.3,197.6c0,0,8.8-13.3,20.7-14.7"/>
<path class="st2" d="M208.9,197.6c0,0,7.7-10.1,18.8-14"/>
<line class="st2" x1="258.6" y1="225" x2="253.6" y2="236"/>
<circle class="st8" cx="281" cy="162.3" r="13.5"/>
</svg>
