<?xml version="1.0" encoding="utf-8"?>
<!-- Generator: Adobe Illustrator 28.2.0, SVG Export Plug-In . SVG Version: 6.00 Build 0)  -->
<svg version="1.1" id="Layer_1" xmlns="http://www.w3.org/2000/svg" xmlns:xlink="http://www.w3.org/1999/xlink" x="0px" y="0px"
	 width="355px" height="200px" viewBox="0 0 355 200" style="enable-background:new 0 0 355 200;" xml:space="preserve">
<style type="text/css">
	.st0{fill:#EFEFEF;stroke:#252525;stroke-width:0.5;stroke-miterlimit:10;}
	.st1{fill:#252525;stroke:#252525;stroke-width:0.5;stroke-miterlimit:10;}
	.st2{fill:none;stroke:#252525;stroke-width:0.5;stroke-miterlimit:10;}
	.st3{fill:#FFFFFF;stroke:#252525;stroke-width:0.5;stroke-miterlimit:10;}
	.st4{fill:#E44946;stroke:#252525;stroke-width:0.5;stroke-miterlimit:10;}
	.st5{fill:#F8B32B;stroke:#252525;stroke-width:0.5;stroke-miterlimit:10;}
	.st6{fill:#252525;stroke:#252525;stroke-miterlimit:10;}
	.st7{fill:#C4C3C2;stroke:#252525;stroke-width:0.5;stroke-miterlimit:10;}
	.st8{fill:#1E85C2;stroke:#252525;stroke-width:0.5;stroke-miterlimit:10;}
</style>
<path class="st5" d="M201.7,148.1c-13.8,0.7-25.5,10.5-28.6,24l-4.8,20.6h67.2h67.2l-4.8-20.6c-3.1-13.5-14.8-23.3-28.6-24
	l-11.1-0.6c-2.5-0.1-4.4-2.3-4.3-4.8l0,0h-36.7l0,0c0.1,2.5-1.8,4.6-4.3,4.8L201.7,148.1z"/>
<path class="st7" d="M255.8,118.9L255.8,118.9l-4,0.3l-0.3,3.8l-16-5.4l-16,5.4l-0.3-3.8l-4-0.3l0,0c-2.5-0.3-4.4,2.2-3.5,4.6
	c0.4,1.1,1,2.2,1.7,3.3c0.8,1.2,2.1,1.8,3.4,1.8l0.3,14.2h36.7l0.3-14.2c1.3,0,2.6-0.6,3.4-1.8c0.7-1,1.3-2.2,1.7-3.3
	C260.2,121.2,258.3,118.7,255.8,118.9z"/>
<path class="st1" d="M256.4,114.8L256.4,114.8c0.2-1.3,0.4-2.7,0.4-4c0-11.8-9.5-21.3-21.3-21.3c-11.8,0-21.3,9.5-21.3,21.3
	c0,1.4,0.1,2.7,0.4,4l0,0c0,0,0,0.1,0,0.2c0,0,0,0,0,0.1c0.2,1.1,1.1,6.5,3.4,13c2.2,6.4,8.3,10.7,15,10.7h2.5h2.5
	c6.8,0,12.8-4.3,15-10.7c2.2-6.5,3.1-11.9,3.4-13c0,0,0,0,0-0.1C256.4,114.8,256.4,114.8,256.4,114.8z"/>
<path class="st0" d="M149.6,123.6c0,0,2.8,1.4,3.3,5.7c0.5,4.3-0.9,5.9-0.9,5.9l-9.1,2.7l-4.3-6.5l2.9-4.5L149.6,123.6z"/>
<path class="st2" d="M146.9,125.8c0,0,3.1,3.4,1.8,9.6"/>
<path class="st2" d="M144.3,129.5c0,0,1.5,1.8,0.9,5"/>
<path class="st1" d="M149.6,123.6c-2.6,1.9-4.5,3.8-5.6,6.6c-0.4,1.2-0.3,2.3,0.3,3.3c0,0,0.9-4.7,7.2-8.2
	C150.5,124.1,149.6,123.6,149.6,123.6z"/>
<path class="st0" d="M159.8,137.1c-3.1-3.5-5.1-2.1-9.3-1.8c-0.9,0.1-1.7,0.1-2.5,0.2c-2.9,0.2-5-2.6-4-5.3c1.1-2.8,3-4.7,5.6-6.6
	c1.8-1.3,3.5-2.8,4.8-4c1.8-1.7,2.8-4,2.8-6.5v-0.9l-2.6,1.8c-2.4,1.7-4.9,3.1-7.6,4.3l-1.7,0.8c-5.4,2.4-10,6.1-13.3,10.9l-5,7.2
	l11.3,9.8c0,0,10-3.1,13.9-5.7C157.3,137.9,159.8,137.1,159.8,137.1z"/>
<polygon class="st8" points="100.5,160.5 100.5,160.5 104.5,181.2 120.6,183.8 138.3,146.9 127,137.1 "/>
<path class="st3" d="M82.2,61.4c4.2-4.3,6.7-9.5,6.7-15.3C89,32,73.8,20.6,55,20.6c-18.8,0-34,11.4-34,25.5
	c0,14.1,15.2,25.5,34,25.5c6.8,0,13-1.5,18.3-4l8.9,10.8V61.4z"/>
<path class="st3" d="M293.9,49.5c-14.7,0-26.6,10.3-26.6,23.1c0,3.5,0.9,6.8,2.5,9.7l-10.2,13.4l18.8-4.4c4.4,2.8,9.8,4.4,15.6,4.4
	c14.7,0,26.6-10.3,26.6-23.1S308.6,49.5,293.9,49.5z"/>
<path class="st0" d="M217.2,23.6c-3.3,0-6.4,0.6-9.3,1.7c-4.9-9.3-14.7-15.7-26-15.7c-15.1,0-27.5,11.3-29.2,25.9
	c-1.3-0.3-2.7-0.4-4.2-0.4c-11.8,0-21.4,9.6-21.4,21.4c0,11.8,9.6,21.4,21.4,21.4h68.7c15,0,27.2-12.2,27.2-27.2
	C244.3,35.7,232.2,23.6,217.2,23.6z"/>
<path class="st0" d="M113.2,139.4c0.2-0.1,0.4-0.3,0.6-0.4c4.6-3,7.5-8.3,7.4-14.1l-0.2-5.3l2.9-2.4l-1.2-1.6
	c-1.3-1.9-2.4-4-3.3-6.1l-3.5-9.2c-4.4-11.4-17.2-16.9-28.5-12.4l0,0c-11.1,4.5-16.5,17.1-12,28.2l5.6,13.9
	c1.9,4.7,2.9,9.7,2.9,14.8v3.5h31.2L113.2,139.4z"/>
<path class="st8" d="M78.8,157l-2.4,1.4c-6.9,3.9-12.4,9.9-15.8,17l-8.3,17.3H105h57.7l-3.2-14.6c-2.2-10.1-10.2-17.8-20.4-19.7
	l-22.8-4.3l-1.2-5.8H83.9C83.9,151.8,82,155.2,78.8,157z"/>
<path class="st7" d="M103.9,132.7c2.9-3.7,3.8-8.5,2.4-12.9l-0.8-2.8c-0.3-1.1,0.1-2.3,1.2-2.9c1.2-0.6,2.6-0.3,3.3,0.9l1.7,2.7
	c0.7,1.1,2.3,1.4,3.4,0.7c0.9-0.6,1.2-1.8,0.8-2.8l-1.9-4.4c-1.6-3.8-1.2-8.1,1.2-11.5l0.4-0.6c-4.8-10.6-17.1-15.6-28-11.2l0,0
	c-11.1,4.5-16.5,17.1-12,28.2l5.6,13.9c0.7,1.7,1.2,3.4,1.7,5.2l4.4,1.9C93.1,139.5,99.9,137.8,103.9,132.7z"/>
<path class="st3" d="M113.9,139c-1.5,1-3.3,1.8-5.2,2.2"/>
</svg>
