<svg xmlns="http://www.w3.org/2000/svg" viewBox="0 0 484.36 140.38"><g id="Layer_2" data-name="Layer 2"><g id="Layer_1-2" data-name="Layer 1"><path d="M30.06,113q4.43,6.5,16.11,6.5a86.49,86.49,0,0,0,15.64-1.32,26,26,0,0,1,5.84-1,3.83,3.83,0,0,1,3.95,3,38.49,38.49,0,0,1,2.08,11.31q0,3.76-3.21,4.9-10.55,3.94-27.32,3.95-21.85,0-32.5-10.83T0,92.14Q0,65.2,10.65,53T46.54,40.7A83.82,83.82,0,0,1,69,43.34c2.26.75,3.39,2.2,3.39,4.33a49.79,49.79,0,0,1-2.08,13c-.62,2.14-1.88,3.21-3.76,3.21a24.91,24.91,0,0,1-3.3-.38c-1.57-.25-2.48-.37-2.73-.37A69.25,69.25,0,0,0,47.3,62q-12.82,0-17.24,6.69t-4.43,22Q25.63,106.47,30.06,113Z" fill="#231d45"></path><path d="M113.08,24.78q-3.39,3.3-10.37,3.3-13.36,0-13.38-13.95Q89.33,0,102.71,0q6.8,0,10.27,3.11t3.49,10.83Q116.47,21.49,113.08,24.78Z" fill="#94c01e"></path><path d="M110.63,138.12H95q-4.71,0-4.71-5.27V48.61q0-5.46,4.9-5.46h15.64q4.71,0,4.71,5.28v84.42C115.53,136.36,113.89,138.12,110.63,138.12Z" fill="#231d45"></path><path d="M157.17,138.12H141.53q-4.71,0-4.71-5.27V60.49q0-9,6.78-11.69,8.47-3.57,22.52-5.74a171.12,171.12,0,0,1,26.09-2.17q12.82,0,19.13,2.92a15.73,15.73,0,0,1,8.57,8.95q1.89,5.46,1.89,18.47v61.62q0,5.27-4.71,5.27H201.26q-4.71,0-4.71-5.27v-56q0-6.41-.94-9.23-1.52-5.48-12.25-5.47T167,64.63a8.46,8.46,0,0,0-3.59,2.07c-.88.88-1.31,2.46-1.31,4.72v61.43C162.07,136.36,160.43,138.12,157.17,138.12Z" fill="#231d45"></path><path d="M276.82,114q3,3.77,16.58,4.71,4.52.38,4.52,5.09,0,5.08-.38,10.74-.56,4.91-5.84,4.9-15.65,0-24-2.26a24.45,24.45,0,0,1-13.1-8.1,24.12,24.12,0,0,1-5.18-11.5,113,113,0,0,1-1.23-19V64.07h-9.8c-3.26,0-4.9-1.64-4.9-4.9V48.61q0-5.26,5.28-5.27h10q.18-7.16.75-19.6.38-5.83,5.09-5.84H268.9c3,0,4.52,2,4.52,6V43.34h16.4q5.83,0,5.84,5.09V59q0,5.09-5.47,5.09H273.42V99.3Q273.42,110,276.82,114Z" fill="#231d45"></path><path d="M329.38,138.12H313.74q-4.71,0-4.71-5.27V61.62a17.32,17.32,0,0,1,1.22-7.26,13.22,13.22,0,0,1,4.43-4.8q4.9-3.21,16.11-5.94A89.77,89.77,0,0,1,352,40.89q9.24,0,12.63,1.13a4.86,4.86,0,0,1,3.39,4.9,56,56,0,0,1-1.13,12.81q-.75,3.21-4.71,3.21c-.88,0-2.7-.07-5.47-.19s-4.64-.19-5.65-.19q-8.48,0-13.38,2.45A5.63,5.63,0,0,0,335,67.46a11,11,0,0,0-.75,4.9v60.49Q334.28,138.12,329.38,138.12Z" fill="#231d45"></path><path d="M449.22,130.77a14.75,14.75,0,0,1-6.59,4.34,94.09,94.09,0,0,1-17.05,3.67,147.65,147.65,0,0,1-20.83,1.6q-20.53,0-28.17-8.19T369,109.67q0-16.22,10.55-23.18,8.87-6,30.15-6a153.19,153.19,0,0,1,16.77.75V76.5q0-6-.94-8.66-2.26-5.48-16-5.47a112.92,112.92,0,0,0-18.85,1.7q-7.35,1.13-8.1,1.13c-2.14,0-3.52-1.2-4.15-3.58a51.81,51.81,0,0,1-1.88-10.93A5.43,5.43,0,0,1,380.63,45Q394.39,40.69,413,40.7q23.74,0,31.66,7.73,6.78,6.59,6.79,25.06v48.24C451.49,125.87,450.73,128.89,449.22,130.77ZM412.86,97.61q-12.44,0-16.21,2.82-3.58,2.26-3.58,8.67,0,6,3.2,9.14t11.5,3.11q10.17,0,15.26-2.26a4.49,4.49,0,0,0,2.83-3,23.65,23.65,0,0,0,.56-6.4V98.36Q418.89,97.61,412.86,97.61Z" fill="#231d45"></path><path d="M458.9,36.14h-1.3c-.38,0-.57-.21-.57-.62V19.92h-5c-.4,0-.6-.18-.6-.52V18.28c0-.36.2-.55.6-.55h12.51c.4,0,.6.19.6.55V19.4c0,.34-.2.52-.6.52h-5v15.6C459.48,35.93,459.28,36.14,458.9,36.14Z" fill="#231d45"></path><path d="M469.49,36.14h-1.3c-.35,0-.53-.21-.53-.62V19.58a2.37,2.37,0,0,1,.38-1.44,1.6,1.6,0,0,1,1.37-.51h.6a3,3,0,0,1,.75.08,1,1,0,0,1,.53.39,3.5,3.5,0,0,1,.37.54c.08.16.21.46.4.91q3.17,7.36,4,9.57.78-2,4-9.54c.16-.38.28-.65.37-.82a4.43,4.43,0,0,1,.37-.57,1.21,1.21,0,0,1,.56-.44,2.21,2.21,0,0,1,.78-.12h.65a1.5,1.5,0,0,1,1.29.44,2.83,2.83,0,0,1,.3,1.51V35.47c0,.45-.19.67-.57.67h-1.28c-.36,0-.54-.21-.54-.65Q482,23,482,20.05q-1,2.84-4.62,11.26a3.19,3.19,0,0,1-.51.87,1,1,0,0,1-.69.24h-.36c-.52,0-.93-.35-1.23-1.06q-3.94-9.43-4.65-11.31.07,3.06.08,15.47C470.06,35.93,469.87,36.14,469.49,36.14Z" fill="#231d45"></path></g></g></svg>