<svg width="79" height="40" viewBox="0 0 79 40" fill="none" xmlns="http://www.w3.org/2000/svg">
<path d="M52.9377 6.1974C52.9221 6.05195 52.8987 5.82598 52.8727 5.67792C52.8682 5.64898 52.8528 5.62287 52.8296 5.60498C52.8064 5.5871 52.7772 5.57881 52.7481 5.58182H52.6364C52.5484 5.50453 52.4386 5.45644 52.3221 5.44416C52.09 5.43375 51.8591 5.40597 51.6312 5.36104C51.5065 5.32208 51.1792 5.37922 50.9688 5.33766C50.7385 5.26285 50.5122 5.17615 50.2909 5.07792C50.1247 5.02338 49.7299 4.97663 49.5558 4.91948C49.3351 4.87273 48.9636 4.74545 48.8 4.70649C48.5167 4.64644 48.2259 4.6298 47.9377 4.65714C47.7826 4.67076 47.6322 4.71678 47.4961 4.79221C47.4 4.83377 47.3325 4.88312 47.3922 4.95065C47.2571 5.05195 47.3636 5.18182 47.3922 5.27793C47.3677 5.28727 47.3457 5.30229 47.3281 5.32176C47.3105 5.34123 47.2978 5.36458 47.2909 5.38992C47.2841 5.41526 47.2834 5.44185 47.2888 5.46753C47.2942 5.49321 47.3056 5.51724 47.3221 5.53767C47.2985 5.56775 47.2818 5.60267 47.2733 5.63994C47.2648 5.6772 47.2646 5.71589 47.2727 5.75325C47.3011 5.90444 47.2886 6.06049 47.2364 6.2052C47.2165 6.27148 47.222 6.3428 47.2519 6.4052C47.2208 7.52987 47.3013 10.3403 47.3818 10.6208C47.3882 10.6385 47.4004 10.6536 47.4164 10.6635C47.4325 10.6734 47.4514 10.6776 47.4701 10.6753C47.4975 10.671 47.5255 10.6768 47.5489 10.6917C47.5723 10.7065 47.5895 10.7293 47.5974 10.7558C47.6226 10.9189 47.7044 11.0679 47.8286 11.1766C47.8386 11.1831 47.8504 11.1866 47.8623 11.1866C47.8743 11.1866 47.886 11.1831 47.8961 11.1766C47.9558 11.1403 48.0156 11.1766 48.0779 11.161C48.1108 11.1592 48.1435 11.1662 48.1727 11.1813C48.2019 11.1963 48.2266 11.2189 48.2442 11.2468C48.2663 11.283 48.3002 11.3105 48.3403 11.3247C48.3463 11.3267 48.3526 11.3273 48.3589 11.3264C48.3652 11.3256 48.3712 11.3233 48.3764 11.3198C48.3817 11.3163 48.3861 11.3116 48.3892 11.3062C48.3924 11.3007 48.3943 11.2946 48.3948 11.2883C48.3948 11.2078 48.3325 11.1351 48.4234 11.0805C48.5143 11.026 48.5584 11.1584 48.5948 11.1455C48.6857 11.0961 48.761 11.1636 48.7974 11.1455C48.8338 11.1273 48.7974 11.0468 48.8338 11.026C48.8701 11.0052 48.9818 11.0623 49.0156 11.026C49.0494 10.9896 48.9688 10.9013 49.0442 10.8857C49.1195 10.8701 49.0571 11.0078 49.1792 11C49.257 10.994 49.3333 10.9755 49.4052 10.9455C49.4286 10.9273 49.4208 10.8701 49.4416 10.8571C49.4623 10.8442 49.5117 10.8727 49.5403 10.8987C49.547 10.9049 49.5558 10.9084 49.5649 10.9084C49.5741 10.9084 49.5829 10.9049 49.5896 10.8987C49.6234 10.8649 49.6831 10.8494 49.7169 10.813C49.7256 10.808 49.7354 10.8053 49.7455 10.8053C49.7555 10.8053 49.7653 10.808 49.774 10.813C49.8364 10.8416 49.8494 10.9325 49.8753 10.9143C49.9013 10.8961 49.8078 10.7792 49.8597 10.7481C49.9117 10.7169 49.9481 10.7714 49.961 10.8208C49.9647 10.8237 49.9693 10.8253 49.974 10.8253C49.9788 10.8253 49.9833 10.8237 49.987 10.8208C50.0675 10.787 50.1013 10.7558 50.1039 10.639C50.1792 10.6156 50.2649 10.5714 50.2623 10.4805C50.2629 10.4752 50.2653 10.4702 50.2691 10.4665C50.2728 10.4627 50.2778 10.4603 50.2831 10.4597C50.5013 10.4727 50.3948 10.6987 50.5221 10.7714C50.5284 10.7775 50.5367 10.7808 50.5455 10.7808C50.5542 10.7808 50.5625 10.7775 50.5688 10.7714C50.623 10.6658 50.6673 10.5553 50.7013 10.4416C50.7044 10.4305 50.7107 10.4206 50.7195 10.4131C50.7284 10.4057 50.7392 10.4011 50.7507 10.4C50.8087 10.4028 50.8669 10.3949 50.9221 10.3766C51.0052 10.3273 50.9221 10.1766 51.0078 10.1792C51.0935 10.1818 51.1221 10.3455 51.161 10.4831C51.1637 10.4869 51.1672 10.4899 51.1712 10.492C51.1753 10.4942 51.1798 10.4953 51.1844 10.4953C51.189 10.4953 51.1935 10.4942 51.1976 10.492C51.2017 10.4899 51.2052 10.4869 51.2078 10.4831C51.2464 10.4463 51.2828 10.4073 51.3169 10.3662C51.3558 10.3844 51.3922 10.4649 51.4234 10.4649C51.4545 10.4649 51.4234 10.3195 51.4545 10.2701C51.5636 10.2701 51.5636 10.3221 51.6156 10.3481C51.6199 10.3506 51.6249 10.3519 51.6299 10.3519C51.6349 10.3519 51.6398 10.3506 51.6442 10.3481C51.6727 10.3195 51.6753 10.2234 51.7325 10.2234C51.7896 10.2234 51.7844 10.2883 51.8883 10.2883C51.9481 10.1325 51.8182 9.83636 51.9299 9.83636C52.0416 9.83636 51.9792 9.99741 52.0961 10.0052C52.213 10.013 52.1351 9.5039 52.1247 9.4C52.1139 9.30343 52.1095 9.20624 52.1117 9.10909C52.1117 8.45195 52.0935 6.97922 52.2078 6.27273C52.2909 7.01039 52.1844 8.67013 52.2831 8.95065C52.374 8.65715 52.3662 7.2078 52.4182 6.77922C52.4753 7.32728 52.4 8.2 52.4935 8.54286C52.5532 8.2 52.4779 8.17403 52.5455 7.97143C52.5792 7.88312 52.652 7.91169 52.6987 7.75585C52.7766 8.06753 52.6857 8.51429 52.7506 8.81818C52.813 8.5039 52.7844 8.18702 52.8182 7.95585C52.842 7.87987 52.862 7.80271 52.8779 7.72468C52.8798 7.65638 52.8719 7.58817 52.8545 7.52208C52.8407 7.47459 52.8407 7.42412 52.8545 7.37662C52.9584 7.08571 52.7533 6.68831 52.9117 6.30909C52.9295 6.27459 52.9384 6.23621 52.9377 6.1974ZM52.6961 6.66234C52.626 6.66234 52.6416 6.24156 52.7169 6.26234C52.7922 6.28312 52.7688 6.65974 52.6961 6.66234ZM51.5506 9.18442C51.5299 9.07273 51.5273 8.7065 51.6623 8.7065C51.6987 8.86494 51.7117 9.19481 51.5506 9.18442ZM51.6494 9.73247C51.5247 9.73247 51.548 9.43637 51.6338 9.43637C51.6695 9.53107 51.675 9.63454 51.6494 9.73247ZM51.6286 8.43377C51.7039 8.43377 51.6961 8.52468 51.6961 8.59221C51.6286 8.58961 51.6286 8.5013 51.6286 8.43117V8.43377ZM51.7065 9.41299C51.7766 9.39221 51.8026 9.56624 51.7065 9.58702C51.6727 9.52208 51.7065 9.48831 51.7065 9.41039V9.41299ZM52.3766 6.49351C52.3766 6.44935 52.3766 6.35065 52.4156 6.35065C52.4156 6.4052 52.4312 6.49351 52.3766 6.49351ZM52.6623 7.27273C52.6623 7.2052 52.6312 7.01299 52.6961 6.97662C52.7123 7.02241 52.7177 7.07133 52.7119 7.11955C52.706 7.16778 52.6891 7.21398 52.6623 7.25455V7.27273Z" fill="black"/>
<path d="M20.4182 30.6987H14.4753V27.7273C13.2857 29.8052 10.9091 31.039 7.98182 31.039C3.14026 31.039 0 27.5584 0 22.6312V9.3013H5.94286V21.3169C5.94286 23.9143 7.6 25.774 10.0623 25.774C12.6597 25.774 14.4779 23.7792 14.4779 21.0182V9.3013H20.4208L20.4182 30.6987Z" fill="black"/>
<path d="M28.7325 28.3636V30.7013H22.8286V0H28.7325V11.5481C29.9195 9.97663 32 8.95065 34.6753 8.95065C40.8753 8.95065 44.6961 13.3221 44.6961 19.9896C44.6961 26.6571 40.8753 31.0286 34.5896 31.0286C32.1273 31.039 29.9195 30.0208 28.7325 28.3636ZM38.8364 20C38.8364 16.3922 36.7584 14.013 33.613 14.013C30.4675 14.013 28.3922 16.3922 28.3922 20C28.3922 23.5662 30.4701 25.9429 33.613 25.9429C36.7558 25.9429 38.8364 23.5662 38.8364 20Z" fill="black"/>
<path d="M72.1584 11.6364V9.2987H78.0597V40H72.1584V28.4493C70.9688 30.0208 68.8883 31.0468 66.213 31.0468C60.0156 31.0468 56.1948 26.6753 56.1948 20.0078C56.1948 13.3403 60.0156 8.96883 66.2987 8.96883C68.761 8.96104 70.9766 9.97922 72.1584 11.6364ZM62.0545 20C62.0545 23.6078 64.1325 25.987 67.2753 25.987C70.4182 25.987 72.4987 23.6078 72.4987 20C72.4987 16.4338 70.4208 14.0571 67.2753 14.0571C64.1299 14.0571 62.0545 16.4338 62.0545 20Z" fill="black"/>
<path d="M52.6727 29.6104C52.6338 29.5766 52.4935 29.8701 52.5714 29.9688C52.587 29.9922 52.7455 30.0286 52.7169 29.9688C52.652 29.839 52.8182 29.7013 52.6727 29.6104Z" fill="black"/>
<path d="M52.6 28.1403C52.6094 28.1422 52.6192 28.142 52.6285 28.1397C52.6379 28.1373 52.6466 28.133 52.654 28.1269C52.6615 28.1208 52.6675 28.1131 52.6716 28.1044C52.6757 28.0957 52.6779 28.0862 52.6779 28.0766C52.6779 28.067 52.6757 28.0575 52.6716 28.0488C52.6675 28.0401 52.6615 28.0324 52.654 28.0263C52.6466 28.0203 52.6379 28.0159 52.6285 28.0136C52.6192 28.0113 52.6094 28.0111 52.6 28.013C52.6286 28.0805 52.574 28.0935 52.6 28.1403Z" fill="black"/>
<path d="M53.2104 17.6623C53.0675 17.6338 53.1532 17.7455 53.1195 17.7792C53.144 17.7702 53.1656 17.7544 53.1816 17.7338C53.1977 17.7131 53.2076 17.6884 53.2104 17.6623Z" fill="black"/>
<path d="M52.5688 30.0156C52.4831 30.0156 52.4597 30.1766 52.5558 30.1766C52.7455 30.1766 52.652 30.0156 52.5688 30.0156Z" fill="black"/>
<path d="M53.1117 17.9481C53.0935 17.974 53.1299 17.987 53.1117 18.013C53.1844 18.0156 53.1688 17.9532 53.1117 17.9481Z" fill="black"/>
<path d="M53.1818 17.5117C53.2052 17.4961 53.239 17.4623 53.2078 17.4416C53.1766 17.4208 53.1506 17.4909 53.1818 17.5117Z" fill="black"/>
<path d="M53.4286 18.1818C53.3558 18.1818 53.4286 18.226 53.4 18.2571C53.4675 18.2597 53.4442 18.1818 53.4286 18.1818Z" fill="black"/>
<path d="M53.4156 18.1325C53.5091 18.0364 53.4493 17.9325 53.4779 17.8052C53.3325 17.8805 53.4364 18.0364 53.4156 18.1325Z" fill="black"/>
<path d="M53.2208 16.7636C53.2 16.7636 53.1896 16.7636 53.1844 16.7636C53.1334 16.9692 53.1334 17.1841 53.1844 17.3896C53.3143 17.1974 53.226 16.9662 53.2208 16.7636Z" fill="black"/>
<path d="M53.3896 16.9506C53.361 16.8909 53.4597 16.7714 53.3636 16.7247C53.339 16.7588 53.3281 16.8009 53.3329 16.8427C53.3377 16.8845 53.3579 16.923 53.3896 16.9506Z" fill="black"/>
<path d="M53.3922 16.6545C53.3939 16.6508 53.3949 16.6467 53.3951 16.6426C53.3952 16.6385 53.3946 16.6344 53.3931 16.6305C53.3917 16.6266 53.3895 16.6231 53.3866 16.6201C53.3838 16.6171 53.3804 16.6147 53.3766 16.613C53.3143 16.6078 53.3143 16.6545 53.3922 16.6545Z" fill="black"/>
<path d="M52.9403 26.6468C52.9792 26.6468 52.9403 26.6104 52.9636 26.5974C52.9117 26.5922 52.9169 26.6338 52.9403 26.6468Z" fill="black"/>
<path d="M53.4831 17.5922C53.5247 17.5922 53.5714 17.5922 53.5636 17.5455C53.5558 17.4987 53.5273 17.5299 53.4909 17.5273C53.4545 17.5247 53.4468 17.5662 53.4831 17.5922Z" fill="black"/>
<path d="M52.7688 28.5974C52.7428 28.6153 52.7208 28.6385 52.7043 28.6654C52.6878 28.6924 52.6771 28.7225 52.6729 28.7538C52.6687 28.7852 52.6712 28.817 52.6801 28.8473C52.689 28.8777 52.7042 28.9058 52.7247 28.9299C52.6584 29.1118 52.6301 29.3054 52.6416 29.4987C52.6727 29.4987 52.7221 29.4234 52.761 29.387C52.7647 29.3798 52.7666 29.3718 52.7666 29.3636C52.7666 29.3555 52.7647 29.3475 52.761 29.3403C52.7546 29.2523 52.7661 29.1639 52.7948 29.0805C52.7948 29.0442 52.7584 29.0026 52.7662 28.9636C52.7948 28.8312 52.974 28.6987 52.7688 28.5974Z" fill="black"/>
<path d="M53.5195 27.1662C53.4892 27.258 53.4775 27.3549 53.4851 27.4512C53.4927 27.5475 53.5194 27.6414 53.5636 27.7273C53.5954 27.5436 53.6137 27.3578 53.6182 27.1714L53.5195 27.1662Z" fill="black"/>
<path d="M53.5117 17.4312C53.6649 17.4156 53.613 17.3013 53.5533 17.2416C53.7169 17.1532 53.5013 16.9974 53.6156 16.9039C53.5506 16.8468 53.6156 16.748 53.5143 16.6987C53.4739 16.7856 53.4548 16.8808 53.4584 16.9765C53.462 17.0723 53.4883 17.1658 53.5351 17.2494C53.4571 17.2883 53.5247 17.3792 53.5117 17.4312Z" fill="black"/>
<path d="M53.5221 17.7169C53.5506 17.7169 53.5403 17.6623 53.4753 17.6545C53.4753 17.6727 53.4441 17.6805 53.4493 17.7065L53.5221 17.7169Z" fill="black"/>
<path d="M53.1221 26.6571C53.1558 26.6571 53.1507 26.5922 53.1221 26.5766C53.0935 26.561 53.0909 26.6338 53.1221 26.6571Z" fill="black"/>
<path d="M52.8753 28.5169C52.8961 28.4701 52.8493 28.4416 52.8312 28.4078C52.7377 28.4286 52.7377 28.5221 52.8753 28.5169Z" fill="black"/>
<path d="M53.4468 26.6831C53.4312 26.6831 53.4156 26.6831 53.4104 26.6831C53.3688 26.774 53.4104 26.8857 53.4104 26.9714C53.5065 26.9065 53.413 26.7792 53.4468 26.6831Z" fill="black"/>
<path d="M53.5039 26.2883C53.4805 26.2286 53.5247 26.1818 53.4468 26.1506C53.6416 26.0675 53.4338 25.5792 53.4468 25.4883C53.4597 25.3974 53.5273 25.3117 53.5143 25.2286C53.5143 25.1974 53.4597 25.1844 53.4468 25.1584C53.4935 25.1325 53.4961 25.0831 53.4987 25.0338C53.5013 24.9844 53.4312 24.7143 53.413 24.6935C53.4442 24.6468 53.413 24.6156 53.3896 24.5688C53.5818 24.3481 53.374 23.5844 53.3896 23.3247C53.2805 23.3247 53.2779 23.2883 53.2701 23.2494C53.2623 23.2104 53.3714 23.2493 53.3818 23.2234C53.3922 23.1974 53.3584 23.1714 53.3013 23.1584C53.3013 23.1273 53.387 23.1584 53.3766 23.1221C53.3766 22.9792 53.3273 22.8468 53.3351 22.7169C53.3195 22.6805 53.1974 22.6753 53.239 22.6208C53.2727 22.6208 53.3013 22.6208 53.2909 22.6519C53.3636 22.639 53.3273 22.5766 53.2494 22.5532C53.2494 22.5351 53.3351 22.5532 53.3247 22.5299C53.3636 22.1143 53.2649 21.7091 53.2883 21.2805C53.2727 21.2623 53.226 21.2545 53.2026 21.239C53.1792 21.2234 53.2753 21.2545 53.2623 21.2078C53.0545 21.0831 53.3507 20.9273 53.187 20.8312C53.187 20.8078 53.2545 20.8156 53.2805 20.8052C53.1974 20.7351 53.2026 20.6338 53.3273 20.6026C53.3403 20.4857 53.3117 20.3429 53.3558 20.2597C53.3221 20.2364 53.2831 20.2597 53.2494 20.239C53.2883 20.1802 53.3122 20.1127 53.319 20.0425C53.3258 19.9723 53.3152 19.9015 53.2883 19.8364C53.2883 19.8026 53.3662 19.8208 53.4 19.813C53.3966 19.7787 53.4011 19.744 53.413 19.7117C53.361 19.6987 53.3766 19.7273 53.3221 19.7117C53.2987 19.2623 53.5325 18.7532 53.426 18.3091C53.3065 18.3506 53.3143 18.4493 53.3039 18.5221C53.2649 18.8026 53.1922 19.3013 53.1792 19.3844C53.1736 19.4436 53.1614 19.502 53.1429 19.5584C53.0571 19.5403 53.0883 19.5169 53.0026 19.5091C53.0026 19.0727 53.1273 18.5636 53.1455 18.0883C52.9818 18.2286 53.0805 18.4675 53.0104 18.6649C52.9169 18.9247 52.9273 19.2571 52.8156 19.5377C52.7143 19.3247 52.8364 19.1299 52.8649 18.9195C52.9039 18.6468 52.9247 18.3558 52.9481 18.0623C52.9714 17.7688 52.9974 17.4779 53.0442 17.1974C53.1247 16.7507 53.0208 16.2234 53.0442 15.7766C52.9429 15.9091 52.9662 16.1507 52.9273 16.2961C52.8104 16.0364 52.9818 15.7766 52.9273 15.4909C52.8941 15.3488 52.8784 15.2031 52.8805 15.0571C52.9152 14.8915 52.9317 14.7225 52.9299 14.5532C52.813 14.6675 52.8156 14.8364 52.7584 14.9974C52.7454 15.039 52.7325 15.1013 52.639 15.1065C52.6227 15.0171 52.6393 14.9249 52.6857 14.8468C52.6441 14.826 52.5948 14.8078 52.6208 14.7688C52.4597 14.8364 52.5584 14.961 52.4805 15.0571C52.4633 14.9383 52.4633 14.8176 52.4805 14.6987C52.4805 14.5688 52.5091 14.439 52.5221 14.2935C52.5729 14.0214 52.5459 13.7405 52.4442 13.4831C52.3818 13.4623 52.3532 13.5169 52.2779 13.5117C52.226 13.4545 52.0571 13.4364 51.9948 13.3818C51.8475 13.3867 51.701 13.3583 51.5662 13.2987C51.5221 13.3009 51.4785 13.3088 51.4364 13.3221C51.2675 13.2649 50.987 13.3221 50.8597 13.2312C50.7896 13.2312 49.213 13.2597 49.0779 13.2026C48.8782 13.2008 48.6788 13.1878 48.4805 13.1636C48.3855 13.1618 48.2905 13.1705 48.1974 13.1896L48.1844 13.1766L48.1325 13.1922H48.0779C48.0182 13.2364 47.9195 13.2468 47.8857 13.2805C47.739 13.3416 47.6051 13.4297 47.4909 13.5403C47.3117 13.7403 47.2831 13.9013 47.2831 14.3506C47.2831 14.5455 47.3351 17.8468 47.3896 21.4494L47.374 28.3481C47.2764 29.0079 47.31 29.6804 47.4727 30.3273C47.5377 30.5429 47.7169 30.8649 47.9351 30.8935C47.9436 30.8911 47.9526 30.8911 47.961 30.8935C48.0138 30.9369 48.0724 30.9727 48.1351 31C48.1509 31.0065 48.1686 31.0065 48.1844 31C48.2465 30.9922 48.3093 30.9922 48.3714 31C48.3877 30.9961 48.4046 30.9961 48.4208 31C48.5039 31.026 48.5091 31.0805 48.6156 31.0987C48.6201 31.0991 48.6246 31.0983 48.6287 31.0964C48.6328 31.0945 48.6363 31.0916 48.6389 31.0879C48.6416 31.0842 48.6432 31.08 48.6436 31.0755C48.6441 31.071 48.6434 31.0665 48.6416 31.0623C48.626 31.026 48.5844 30.9922 48.6416 30.9688C48.6987 30.9455 48.7299 31.0026 48.8026 31.0104C48.8338 30.961 48.9455 31.026 48.9844 31.0104C49.0234 30.9948 48.9636 30.9584 49.0052 30.948C49.0594 30.939 49.1147 30.939 49.1688 30.948C49.2234 30.9195 49.1169 30.8961 49.1688 30.8701C49.2208 30.8442 49.2338 30.9455 49.3091 30.9403C49.3844 30.9351 49.3948 30.8753 49.5299 30.9143V30.8753C49.5747 30.8731 49.6189 30.8869 49.6545 30.9143C49.6954 30.8888 49.739 30.8679 49.7844 30.8519C49.8753 30.8519 49.8727 30.9506 49.9117 30.9221C49.9506 30.8935 49.8753 30.8649 49.8961 30.8286C49.9714 30.8156 49.9818 30.8545 50.0026 30.8805C50.0805 30.8675 50.1273 30.8364 50.1169 30.7792C50.1792 30.7792 50.239 30.761 50.2364 30.7195C50.2362 30.7169 50.2367 30.7143 50.2378 30.712C50.2389 30.7097 50.2405 30.7077 50.2426 30.7061C50.2446 30.7046 50.247 30.7036 50.2496 30.7032C50.2521 30.7028 50.2547 30.703 50.2571 30.7039C50.4494 30.7195 50.374 30.8338 50.5039 30.8753C50.5113 30.8775 50.5193 30.8775 50.5267 30.8752C50.5341 30.8729 50.5406 30.8684 50.5455 30.8623C50.5784 30.8129 50.6054 30.7597 50.626 30.7039C50.6276 30.6988 50.6306 30.6944 50.6348 30.6911C50.639 30.6879 50.6441 30.686 50.6493 30.6857C50.7039 30.6857 50.8078 30.6857 50.8338 30.6857C50.8597 30.6857 50.8493 30.6234 50.8675 30.5974C50.8857 30.5714 50.8805 30.5974 50.8857 30.5974C51.0331 30.6499 51.1756 30.7151 51.3117 30.7922C51.3532 30.7792 51.3532 30.7325 51.387 30.7273C51.4208 30.7221 51.4571 30.7558 51.4753 30.7403C51.4935 30.7247 51.4494 30.6649 51.4753 30.6649C51.5489 30.6697 51.6214 30.6845 51.6909 30.7091C51.7016 30.6925 51.7147 30.6776 51.7299 30.6649C51.7896 30.6649 51.8364 30.7195 51.8545 30.6961C51.8727 30.6727 51.8416 30.5584 51.8701 30.4961C51.874 30.4889 51.8803 30.4834 51.888 30.4805C51.8956 30.4777 51.904 30.4777 51.9117 30.4805C51.974 30.5091 52.0052 30.5766 52.0442 30.5299C52.1455 30.4078 51.9584 30.2857 52.0857 30.1974C52.1313 30.171 52.1717 30.1367 52.2052 30.0961C52.2649 29.9403 52.1455 29.813 52.187 29.7143C52.1922 29.7 52.1922 29.6844 52.187 29.6701C52.1532 29.561 52.1195 29.4701 52.187 29.3818C52.192 29.3722 52.1946 29.3615 52.1946 29.3506C52.1946 29.3398 52.192 29.3291 52.187 29.3195C52.1638 29.2415 52.1638 29.1585 52.187 29.0805C52.2026 28.9792 52.2052 28.8571 52.2286 28.7481C52.2696 28.6148 52.294 28.4769 52.3013 28.3377C52.3041 28.3178 52.3041 28.2977 52.3013 28.2779C52.331 28.2721 52.3588 28.2586 52.3818 28.239C52.3636 28.0935 52.2597 27.8961 52.4208 27.7974C52.3195 27.7299 52.4078 27.374 52.4208 27.3065C52.4338 27.239 52.3013 27.1247 52.4416 27.0779C52.5013 27.0909 52.4831 27.1299 52.548 27.1039C52.548 27.239 52.5351 27.813 52.548 27.9195C52.7065 27.8961 52.6104 27.7818 52.626 27.7247C52.6416 27.6675 52.6831 27.6857 52.6883 27.6623C52.6935 27.639 52.6104 27.239 52.6883 27.1792C52.8104 27.226 52.7325 27.5844 52.7299 27.6364C52.7091 27.8338 52.8234 28.0649 52.7299 28.2545C52.761 28.2883 52.7922 28.3221 52.774 28.374C52.9273 28.374 52.8753 28.2597 52.8052 28.2312C52.8052 28.174 52.8468 28.1455 52.8052 28.1013C52.8597 28.0675 52.8805 28.0182 52.9429 27.9896C52.9219 27.8701 52.9336 27.7472 52.9766 27.6338C52.9981 27.4571 53.0059 27.2791 53 27.1013C53 26.9481 52.8052 26.7922 52.7403 26.6909C52.8364 26.3662 52.6961 25.9766 52.7532 25.6883C52.8571 25.948 52.8208 26.2753 52.9169 26.5558C53.039 26.3403 52.8545 26.0545 52.9688 25.8883C53.0416 26.0779 53.0182 26.2987 53.0883 26.4883C53.1558 26.439 53.0883 26.3506 53.1636 26.2909C53.239 26.2312 53.3065 26.2779 53.3143 26.239C53.4468 26.3454 53.2571 26.5273 53.4182 26.6364C53.4364 26.5377 53.5143 26.4364 53.4182 26.3558C53.4312 26.3221 53.4805 26.3117 53.5039 26.2883Z" fill="black"/>
</svg>
